<svg width="236" height="95" viewBox="0 0 236 95" fill="none" xmlns="http://www.w3.org/2000/svg">
<path d="M24.9889 1.76392C24.3605 5.51043 21.0148 9.69802 19.1412 13.0171C15.5602 19.3609 11.6937 25.7938 9.16966 32.6347C6.91887 38.7351 4.71789 44.8471 2.47692 50.9422C1.55476 53.4503 1.71857 53.7639 4.43742 53.7639C11.5519 53.7639 18.8369 51.738 25.7325 50.136C33.9688 48.2226 42.2973 46.8402 50.543 44.9965C56.0656 43.7616 61.623 42.9995 66.9706 41.6709" stroke="black" stroke-width="3" stroke-linecap="round"/>
<path d="M40.9706 19.7639C38.7789 25.0344 38.6033 30.5977 37.9547 36.1213C36.7844 46.0887 35.9706 55.8736 35.9706 65.8959C35.9706 73.0556 36.7709 80.0581 37.3198 87.1875C37.4888 89.383 37.2605 90.9843 38.8277 92.7639" stroke="black" stroke-width="3" stroke-linecap="round"/>
<path d="M97.241 29.7639C91.9062 30.16 86.7082 35.6235 83.5917 39.5504C79.3284 44.9223 75.4698 51.8061 76.0238 58.8863C77.6093 79.1476 111.983 74.4536 124.168 69.3839C137.605 63.7933 133.945 48.0896 124.607 40.2615C119.186 35.7171 115.496 35.2498 108.796 35.2498" stroke="black" stroke-width="3" stroke-linecap="round"/>
<path d="M160.487 4.76392C153.901 14.84 149.095 26.6695 145.776 38.1352C145.47 39.1928 140.083 58.2195 142.672 58.6842C145.242 59.1454 148.633 57.4797 151.04 56.8858C160.263 54.6097 169.713 53.4817 179.178 52.756C193.523 51.6562 207.894 51.7131 222.263 51.224C224.608 51.1442 232.149 52.123 233.971 50.3248" stroke="black" stroke-width="3" stroke-linecap="round"/>
<path d="M174.971 11.7639C173.389 24.993 171.807 38.2089 170.472 51.4693C169.583 60.2899 168.225 69.8245 169.475 78.7122C169.991 82.3749 171.5 86.0613 171.5 89.7639" stroke="black" stroke-width="3" stroke-linecap="round"/>
</svg>
