<svg width="224" height="68" viewBox="0 0 224 68" fill="none" xmlns="http://www.w3.org/2000/svg">
<path d="M2.09933 16C2.09933 21.5156 2.09933 27.0312 2.09933 32.5468C2.09933 36.5429 1.74673 40.767 2.37021 44.7222C2.7278 46.9907 3.56208 49.0563 3.56208 51.382C3.56208 52.4926 5.12575 62.5266 6 63" stroke="black" stroke-width="3" stroke-linecap="round"/>
<path d="M3 16C3.13894 17.2419 5.0109 19.0984 5.90598 19.8095C8.22459 21.6517 9.69446 23.9587 11.3692 26.3896C15.1154 31.8271 20.3208 36.1886 24.4462 41.3391C26.5462 43.961 28.7723 46.5013 31.1299 48.8427C33.1228 50.8219 34.5004 54.7588 37 56" stroke="black" stroke-width="3" stroke-linecap="round"/>
<path d="M42 15C42 21.053 42.4005 26.8415 43.0587 32.8474C43.6409 38.1597 44.8584 43.2156 44.8584 48.6037C44.8584 50.1291 45.3014 52.5994 44.6202 53.9639C43.7547 55.6975 42.6561 57.1748 42 59" stroke="black" stroke-width="3" stroke-linecap="round"/>
<path d="M63.0254 40C54.9192 40 53.0678 52.3174 54.3878 58.2101C55.8036 64.531 65.7036 66.9329 71.3931 65.6786C73.8601 65.1347 76.479 63.4877 78.8311 62.5543C80.2797 61.9794 83 61.7023 83 59.7871C83 55.4565 82.8314 52.7599 80.0608 49.2836C77.0012 45.4447 72.6285 41.6068 67.3442 41.6068" stroke="black" stroke-width="3" stroke-linecap="round"/>
<path d="M96.7165 15C90.968 21.052 90.9295 31.6164 90.1012 39.3605C89.6847 43.2543 90.6158 46.3939 91.7694 50.0581C92.3835 52.0088 91.9678 53.9602 92.6898 55.9302C93.8714 59.1547 95.223 60 98.3847 60C101.135 60 102.747 59.4248 105 57.907" stroke="black" stroke-width="3" stroke-linecap="round"/>
<path d="M82 31C89.1727 30.8367 95.4409 26.8906 102.109 24.5625C105.097 23.5192 107.832 22 111 22" stroke="black" stroke-width="3" stroke-linecap="round"/>
<path d="M122 11C122 15.4898 120.448 20.7517 119.626 25.0895C118.965 28.5802 118.865 31.7706 118.818 35.3204C118.771 38.9105 117.679 42.3028 117.48 45.8729C117.199 50.9033 117 66.0263 117 60.9854" stroke="black" stroke-width="3" stroke-linecap="round"/>
<path d="M121 10C127.337 10 133.828 10 140 10" stroke="black" stroke-width="3" stroke-linecap="round"/>
<path d="M119 27C122.903 27 126.306 26.8532 129.878 26.3519C132.436 25.9929 135.354 26 138 26" stroke="black" stroke-width="3" stroke-linecap="round"/>
<path d="M140 22C140 25.7358 140 29.379 140 33" stroke="black" stroke-width="3" stroke-linecap="round"/>
<path d="M146.67 40C143.651 40.314 139.384 43.1791 137.236 45.3863C135.669 46.9976 135.824 50.7087 136.435 52.6579C137.915 57.3794 140.351 62.7718 146.362 60.4381C148.867 59.4656 150 52.0255 150 49.5757C150 47.5634 149.55 44.8118 147.749 43.5011C146.774 42.7909 144.291 42.3835 143.896 41.6159" stroke="black" stroke-width="3" stroke-linecap="round"/>
<path d="M156.943 40C156.943 46.4552 153.999 52.1908 158.513 57.5282C159.112 58.2366 162.173 57.9878 163.014 57.7984C164.274 57.5145 165.776 54.194 165.946 53.2062C166.481 50.0828 168.001 46.527 168.137 43.4216C168.163 42.8166 168.67 38.4076 168.67 40.9605C168.67 43.5295 168.517 45.9722 168.255 48.524C167.67 54.2378 168.48 56.2076 174 56.2076" stroke="black" stroke-width="3" stroke-linecap="round"/>
<path d="M179.029 42.5202C179.029 48.3034 178.799 65.5697 179.638 59.8573C180.441 54.3977 180.159 46.3699 184.129 42.1032C187.029 38.9864 189.263 39.2138 190.282 43.5926C191.421 48.4914 192 53.5698 192 58.6062" stroke="black" stroke-width="3" stroke-linecap="round"/>
<path d="M206.942 41.967C203.652 41.967 200.47 42.5705 199.125 46.2069C197.901 49.5163 195 51.937 195 55.7102C195 59.7258 197.134 61.4843 200.971 60.8858C202.455 60.6545 204.242 58.7525 204.75 57.3477C206.031 53.8061 207.149 50.4364 208.817 47.0549C213.807 36.9399 218.975 25.3039 220.558 14.0713C221.075 10.4025 222 6.81206 222 3.07676C222 -0.0592026 220.684 4.53006 220.038 5.76691C213.812 17.6897 210.207 31.9257 210.058 45.4174C210.008 49.907 208.91 57.4385 213.692 59.8624" stroke="black" stroke-width="3" stroke-linecap="round"/>
</svg>
