<svg width="200" height="100" viewBox="0 0 200 100" fill="none" xmlns="http://www.w3.org/2000/svg">
<rect width="200" height="100" fill="white"/>
<path d="M11.9529 11.1432C12.0072 10.7085 15.2166 10.0371 15.6368 9.92347C17.6036 9.3919 19.664 8.87148 21.586 8.23083" stroke="black" stroke-width="3" stroke-linecap="round"/>
<path d="M12.6249 17.1918C15.8927 17.1918 19.1792 16.2018 22.258 15.1755" stroke="black" stroke-width="3" stroke-linecap="round"/>
<path d="M12.6249 18.76C12.6249 21.3219 12.5841 23.126 13.6953 25.4808C14.0943 26.3264 14.2954 28.7376 15.5373 28.8411C16.6501 28.9339 17.954 28.9414 19.047 28.7416C20.8473 28.4125 22.5119 27.3848 24.2742 26.8747C25.438 26.5378 26.953 26.0551 27.6346 25.0327" stroke="black" stroke-width="3" stroke-linecap="round"/>
<path d="M29.4268 15.1755C29.4268 18.0049 29.6078 20.794 30.049 23.5889C30.1527 24.2454 29.9491 24.92 30.3229 25.4807" stroke="black" stroke-width="3" stroke-linecap="round"/>
<path d="M30.5469 22.7924C32.434 22.6209 34.2142 21.0002 36.1475 21.0002" stroke="black" stroke-width="3" stroke-linecap="round"/>
<path d="M22.0339 33.9937C22.0339 36.4082 22.0696 38.4399 23.6021 40.4406C24.3201 41.3779 24.83 41.2663 25.8921 41.4363C29.518 42.0164 33.7437 41.7702 37.2179 40.6397C38.5634 40.2019 39.1031 39.9204 39.2839 38.4742" stroke="black" stroke-width="3" stroke-linecap="round"/>
<path d="M51.6052 6.2146C52.6488 6.26952 53.7012 6.54706 54.7416 6.66265" stroke="black" stroke-width="3" stroke-linecap="round"/>
<path d="M48.2449 14.0555C50.1098 14.0555 52.0779 14.2433 53.9202 13.956C55.5467 13.7023 57.1454 13.2867 58.774 13.035C59.7982 12.8767 60.1232 12.9645 59.4959 13.9933C58.6849 15.3234 54.2265 19.153 57.9651 20.3033C58.5266 20.4761 59.7123 20.446 60.2178 20.2162C61.4372 19.6619 61.4623 19.5702 61.4623 18.1875C61.4623 17.5763 61.7849 16.299 60.9894 16.0718C60.267 15.8654 59.6317 15.4699 59.4461 14.7276" stroke="black" stroke-width="3" stroke-linecap="round"/>
<path d="M67.287 10.0231C65.9902 12.5447 66.1395 15.8431 66.1669 18.6107C66.1781 19.7488 66.6149 20.7859 66.6149 21.8964" stroke="black" stroke-width="3" stroke-linecap="round"/>
<path d="M67.063 18.0879C68.8285 17.8357 71.2897 16.706 71.9915 14.9515" stroke="black" stroke-width="3" stroke-linecap="round"/>
<path d="M72.8876 10.2471C72.3263 13.9291 71.9915 17.5086 71.9915 21.2243" stroke="black" stroke-width="3" stroke-linecap="round"/>
<path d="M58.326 31.7534C58.792 31.6263 59.1264 31.1761 59.5457 30.9445C60.9978 30.142 62.6264 29.5714 64.2004 29.0651C65.8296 28.5411 67.4618 28.1495 69.1414 27.833C69.4694 27.7712 71.0958 27.0865 71.4314 27.3103C72.2329 27.8446 71.7413 30.599 71.7799 31.4298C71.8303 32.5118 72.2155 33.6023 72.2155 34.6658" stroke="black" stroke-width="3" stroke-linecap="round"/>
<path d="M78.4883 10.2471H83.6409" stroke="black" stroke-width="3" stroke-linecap="round"/>
<path d="M76.696 18.3119C79.1657 18.3119 81.6273 18.0879 84.0889 18.0879" stroke="black" stroke-width="3" stroke-linecap="round"/>
<path d="M75.3519 19.208C75.3519 20.9125 75.8582 22.2759 76.4223 23.8876C76.9807 25.4832 77.7132 25.5338 79.235 25.3562C81.7201 25.0663 84.3914 24.7061 86.7399 23.8254C87.6478 23.485 87.8638 23.0499 88.5694 22.3444" stroke="black" stroke-width="3" stroke-linecap="round"/>
<path d="M93.4979 7.78271C92.8048 12.801 92.3778 17.7559 92.3778 22.8173C92.3778 23.2595 92.3778 26.6578 92.3778 24.3606" stroke="black" stroke-width="3" stroke-linecap="round"/>
<path d="M92.6018 21.6723C94.3568 21.4529 96.2986 20.6641 97.9784 20.1041" stroke="black" stroke-width="3" stroke-linecap="round"/>
<path d="M84.5369 29.9612C84.7493 32.1794 85.0034 33.9575 86.1051 35.8854C86.4865 36.5529 90.3212 35.8665 90.8843 35.8356C91.9636 35.7765 95.7137 36.5068 96.4102 35.1138" stroke="black" stroke-width="3" stroke-linecap="round"/>
<path d="M114.332 5.54248C115.774 6.99949 117.097 8.65511 118.813 9.79895" stroke="black" stroke-width="3" stroke-linecap="round"/>
<path d="M110.748 14.7276C112.769 15.3052 115.218 14.9516 117.294 14.9516C118.54 14.9516 119.893 14.4628 121.14 14.74C121.672 14.8582 117.323 19.2274 116.896 19.6063C115.684 20.6816 116.144 22.2596 117.245 23.1907C118.85 24.5495 121.481 24.5217 122.845 22.7676C123.507 21.9173 123.545 20.9045 123.517 19.8801C123.499 19.1973 123.346 18.3898 122.845 17.8888C122.586 17.6291 122.321 17.712 122.173 17.4159" stroke="black" stroke-width="3" stroke-linecap="round"/>
<path d="M127.774 10.4711C128.378 14.6024 129.156 18.425 130.462 22.3444" stroke="black" stroke-width="3" stroke-linecap="round"/>
<path d="M130.238 18.536C131.68 17.6029 133.197 17.7271 134.27 16.2958" stroke="black" stroke-width="3" stroke-linecap="round"/>
<path d="M134.943 12.0392V19.8801" stroke="black" stroke-width="3" stroke-linecap="round"/>
<path d="M123.517 30.4093C124.972 30.0243 126.301 29.2806 127.724 28.7914C128.228 28.618 128.818 28.3902 129.23 28.0695C129.608 27.7754 132.751 27.3344 133.15 27.833C133.401 28.1461 133.87 28.1073 134.046 28.5051C134.484 29.4898 134.27 30.7457 134.27 31.8032C134.27 32.4474 134.142 33.2462 134.283 33.8817C134.412 34.4627 134.363 35.3313 134.719 34.4418" stroke="black" stroke-width="3" stroke-linecap="round"/>
<path d="M13.297 60.8767C12.8385 62.66 11.9247 64.3391 11.6293 66.1537C11.4177 67.4537 11.5048 68.7997 11.5048 70.1115C11.5048 70.6813 11.3304 71.6046 11.5297 72.1526C11.9068 73.1895 19.4939 70.4321 20.0427 70.2858C23.5339 69.3548 27.0715 68.6371 30.5718 67.7468C31.0148 67.6342 32.3481 67.3734 31.8911 67.3734" stroke="black" stroke-width="3" stroke-linecap="round"/>
<path d="M23.154 60.2046C22.2633 61.7633 22.1791 64.0679 21.8348 65.8052C21.2243 68.8856 20.6728 71.9996 20.5031 75.1396C20.3991 77.0624 20.5433 78.7382 20.9138 80.5909" stroke="black" stroke-width="3" stroke-linecap="round"/>
<path d="M37.4917 67.5974C36.1635 68.7468 31.5285 72.96 33.733 75.1645C35.1803 76.6118 39.1388 76.453 40.852 75.7868C43.4439 74.7789 43.0923 72.4842 43.0923 70.0742C43.0923 69.0946 42.8367 67.8822 41.8726 67.3734C41.3359 67.0902 39.982 66.7534 39.7319 66.2533" stroke="black" stroke-width="3" stroke-linecap="round"/>
<path d="M49.5891 60.6527C48.6046 62.7896 47.5126 64.8359 46.4527 66.9254C46.1334 67.5548 45.7746 68.2503 45.6064 68.9416C45.5539 69.1574 45.3095 71.0511 45.3824 71.1321C45.6618 71.4426 47.5314 71.1819 47.8217 71.1819C51.3003 71.1819 54.7797 71.1504 58.2514 71.4059C59.1841 71.4746 64.1507 72.7268 64.1507 71.1819" stroke="black" stroke-width="3" stroke-linecap="round"/>
<path d="M54.9656 64.9092C53.6287 70.0509 51.8292 74.9929 51.8292 80.3669" stroke="black" stroke-width="3" stroke-linecap="round"/>
<path d="M78.9363 53.7079C76.9465 54.4102 74.1969 55.908 73.1241 57.8523C72.3312 59.2896 71.789 62.5274 72.8379 63.9135C74.261 65.794 78.5113 66.0884 80.6165 65.4692C81.8092 65.1184 84.4713 65.1224 85.0348 63.7392C85.6563 62.2138 85.2484 59.715 84.873 58.2133C84.5168 56.7885 82.849 54.1559 81.1766 54.1559" stroke="black" stroke-width="3" stroke-linecap="round"/>
<path d="M69.9753 73.1981C74.9446 71.8947 79.2907 69.1656 84.5369 69.1656" stroke="black" stroke-width="3" stroke-linecap="round"/>
<path d="M75.5759 71.8539C75.6743 73.7231 75.8685 75.5893 76.024 77.4545" stroke="black" stroke-width="3" stroke-linecap="round"/>
<path d="M79.8324 71.8539C80.0335 73.5755 80.2804 75.2748 80.2804 77.0065" stroke="black" stroke-width="3" stroke-linecap="round"/>
<path d="M71.5435 78.1266C72.4698 80.1509 73.4678 84.6233 76.3849 84.6233C77.5526 84.6233 78.6548 84.8203 79.6581 84.1753C80.386 83.7073 81.062 83.4481 81.8486 83.1671C82.6905 82.8665 83.2303 82.3643 84.0889 81.935" stroke="black" stroke-width="3" stroke-linecap="round"/>
<path d="M92.8259 56.8442C91.9438 60.5489 90.1634 64.1203 88.7934 67.6721C88.2612 69.0518 87.8831 70.4573 87.3497 71.829C86.9266 72.917 86.1653 75.8095 86.7772 72.75" stroke="black" stroke-width="3" stroke-linecap="round"/>
<path d="M91.9297 67.3734C92.4972 68.6218 92.9273 69.7178 93.7344 70.8582C94.0923 71.3639 94.7972 72.989 95.5141 72.75" stroke="black" stroke-width="3" stroke-linecap="round"/>
<path d="M95.9622 66.2533C96.656 66.2533 97.4189 66.3332 98.0905 66.1288C98.9705 65.861 99.6402 64.9426 100.443 64.4611" stroke="black" stroke-width="3" stroke-linecap="round"/>
<path d="M100.891 59.5326C100.774 62.5316 100.508 65.4978 101.003 68.4687C101.154 69.3745 101.339 70.261 101.339 71.1819" stroke="black" stroke-width="3" stroke-linecap="round"/>
<path d="M93.2739 80.5909C97.7287 79.3181 102.239 78.7102 106.74 77.691C108.144 77.3732 108.49 77.3209 108.508 78.948C108.525 80.578 108.508 82.2091 108.508 83.8392C108.508 84.4876 108.508 85.9268 108.508 84.3993" stroke="black" stroke-width="3" stroke-linecap="round"/>
<path d="M112.54 58.6364C110.339 59.3511 106.04 60.381 104.712 62.7062C103.73 64.4243 104.17 66.9987 105.72 68.2197C107.53 69.6458 110.417 70.329 112.565 70.9578C114.124 71.414 116.795 72.4638 118.414 71.8041C119.789 71.2442 119.647 67.9075 119.709 66.776C119.818 64.7818 120.395 62.6697 120.144 60.665C120.008 59.5703 116.854 58.5713 115.9 58.4124" stroke="black" stroke-width="3" stroke-linecap="round"/>
<path d="M120.829 60.8767C122.758 60.8767 125.06 60.8104 126.878 60.2046" stroke="black" stroke-width="3" stroke-linecap="round"/>
<path d="M119.261 66.4773C121.664 66.1946 124.711 66.3983 127.052 65.5314C127.46 65.3801 128 64.9079 128.446 64.6851" stroke="black" stroke-width="3" stroke-linecap="round"/>
<path d="M128.222 56.6202C127.953 59.7882 127.013 63.5017 127.724 66.7014C127.866 67.3398 127.774 68.0632 127.774 68.7176" stroke="black" stroke-width="3" stroke-linecap="round"/>
<path d="M113.212 78.1266C115.06 77.757 116.909 76.9016 118.813 76.5335C120.024 76.2993 121.207 76.1582 122.397 75.8365C123.441 75.5544 124.283 74.9852 124.861 76.2099C125.3 77.1384 125.251 79.8152 124.364 80.5411C123.595 81.1698 120.416 80.4923 119.41 80.6406C118.1 80.8339 117.434 83.1532 117.294 84.225C116.937 86.9778 118.901 86.6204 121.277 86.6395C122.974 86.6532 128.446 87.2891 128.446 84.3993" stroke="black" stroke-width="3" stroke-linecap="round"/>
<path d="M152.641 21.8963C154.584 22.5904 157.012 23.4645 159.125 23.4645C160.411 23.4645 161.4 22.9363 162.522 22.3319C164.687 21.1663 166.781 19.9017 168.895 18.648C170.687 17.5848 172.37 16.4335 174.097 15.2752C174.803 14.8016 175.656 14.0474 176.536 14.4288C179.479 15.704 182.169 17.5693 184.9 19.208" stroke="black" stroke-width="3" stroke-linecap="round"/>
<path d="M141.215 55.9481C141.088 57.6698 140.991 59.3759 140.991 61.1007C140.991 62.6429 141.317 60.9176 141.439 60.2917C141.986 57.4906 143.563 54.1887 146.268 52.9113C148.18 52.0084 150.054 54.2243 151.035 55.5001C152.307 57.1537 152.379 59.4317 153.089 61.3247" stroke="black" stroke-width="3" stroke-linecap="round"/>
<path d="M160.481 54.38C159.651 55.2799 158.78 59.3049 160.033 60.2545C161.593 61.4362 164.698 61.2642 165.858 59.5824C166.79 58.2315 167.103 55.2927 165.41 54.4298C164.362 53.8956 162.759 54.156 161.602 54.156" stroke="black" stroke-width="3" stroke-linecap="round"/>
<path d="M173.699 45.4189C172.374 48.5912 171.976 51.8495 171.508 55.2263C171.332 56.4992 171.003 59.9713 172.23 60.7522C173.468 61.5399 176.197 60.4873 177.333 60.0055C178.32 59.5866 178.742 59.4175 179.524 58.6364" stroke="black" stroke-width="3" stroke-linecap="round"/>
<path d="M171.011 51.2436C173.013 51.2436 174.978 51.1549 176.972 51.0071C177.697 50.9535 178.381 50.5715 179.075 50.5715" stroke="black" stroke-width="3" stroke-linecap="round"/>
<path d="M143.455 71.4059C141.665 72.5416 140.201 75.8354 141.477 77.8279C142.711 79.7572 144.128 81.8216 143.58 84.2251C143.337 85.2904 142.746 87.1795 141.987 87.9837C141.63 88.3613 141.04 88.2078 140.543 88.2078" stroke="black" stroke-width="3" stroke-linecap="round"/>
<path d="M138.527 79.6948C141.65 79.256 144.515 78.6459 147.488 77.9026" stroke="black" stroke-width="3" stroke-linecap="round"/>
<path d="M151.072 81.263C150.336 81.883 149.011 82.5319 148.845 83.6153C148.737 84.3134 148.52 84.9385 148.396 85.619C148.224 86.5698 153.841 86.608 154.433 86.3658C155.737 85.8322 156.218 84.442 155.864 83.1423C155.387 81.3929 154.299 80.8149 152.641 80.8149" stroke="black" stroke-width="3" stroke-linecap="round"/>
<path d="M160.257 78.7987C158.883 80.1729 158.913 82.3858 158.913 84.1753C158.913 84.913 158.661 85.9474 159.312 86.4156C161.204 87.778 164.886 86.7203 165.398 84.25C165.652 83.0218 165.599 81.8297 165.634 80.5909C165.679 78.9997 165.858 80.0943 165.858 81.1385C165.858 82.5687 165.696 83.7304 166.804 84.7976C167.389 85.3609 168.023 85.2396 168.546 84.8474" stroke="black" stroke-width="3" stroke-linecap="round"/>
<path d="M169.89 79.2467C169.89 81.516 169.89 83.7853 169.89 86.0546C169.89 87.7682 169.89 85.9165 169.89 85.1709C169.89 83.4483 169.004 78.8644 171.832 78.7987C174.147 78.7448 174.669 79.4361 175.491 81.6612C175.995 83.0239 176.163 87.4203 176.163 85.9675" stroke="black" stroke-width="3" stroke-linecap="round"/>
<path d="M184.228 78.5746C182.936 78.5746 181.787 78.5932 180.544 79.0351C179.129 79.5382 178.337 80.6211 177.333 81.6612C176.47 82.5551 176.509 83.3436 177.171 84.362C178.05 85.7134 179.814 85.7308 181.241 85.7434C182.612 85.7556 184.284 86.1109 185.348 85.0465C186.364 84.0307 187.358 82.4388 187.713 81.0389C188.105 79.492 187.956 77.7303 188.049 76.1477C188.111 75.0998 188.681 74.1581 188.709 73.0736C188.744 71.6884 188.86 70.328 188.933 68.9416C188.944 68.7267 189.057 68.2463 189.256 68.1326C189.291 68.1128 189.584 70.1796 189.605 70.3853C189.814 72.4307 189.829 74.4543 189.829 76.5086C189.829 78.4459 189.399 81.1573 190.899 82.6569C191.369 83.1272 192.488 82.9981 192.741 83.5032" stroke="black" stroke-width="3" stroke-linecap="round"/>
</svg>
