<svg width="92" height="102" viewBox="0 0 92 102" fill="none" xmlns="http://www.w3.org/2000/svg">
<path d="M60.7053 7.96692C58.7797 8.7853 57.5232 10.6202 57.5232 12.74C57.5232 15.3228 60.1594 16.5773 62.4835 16.5773C63.6427 16.5773 64.8796 15.1165 65.5512 14.2583C66.242 13.3756 66.5079 12.1117 66.5079 11.0034C66.5079 8.97231 63.5957 7.96692 61.8284 7.96692" stroke="black" stroke-width="1.5" stroke-linecap="round"/>
<path d="M57.1488 19.5721C59.739 19.5721 61.5301 18.8016 63.8873 17.8043C64.8238 17.4081 65.838 17.1929 66.6951 16.7644" stroke="black" stroke-width="1.5" stroke-linecap="round"/>
<path d="M63.7001 18.6362C63.7001 19.3585 63.2735 21.8858 64.2617 22.3799" stroke="black" stroke-width="1.5" stroke-linecap="round"/>
<path d="M61.454 23.8773C61.0271 24.7523 59.5413 27.8709 61.0796 28.64C62.4417 29.3211 64.5239 29.2894 65.9567 28.9312C67.1528 28.6322 68.2376 28.1538 68.5253 26.8306C68.6508 26.253 69.1126 24.431 68.3797 24.0645" stroke="black" stroke-width="1.5" stroke-linecap="round"/>
<path d="M60.8925 27.4339C62.8847 27.2242 64.8826 26.8723 66.8823 26.8723" stroke="black" stroke-width="1.5" stroke-linecap="round"/>
<path d="M76.0541 9.46436C74.4845 12.2686 72.907 15.056 71.5617 17.9707C71.2465 18.6537 71.2283 19.5107 70.813 20.1337" stroke="black" stroke-width="1.5" stroke-linecap="round"/>
<path d="M73.808 14.7054C75.6988 15.3132 77.6068 16.6531 79.6106 16.7644C80.0709 16.79 80.422 17.1388 80.9209 17.1388" stroke="black" stroke-width="1.5" stroke-linecap="round"/>
<path d="M72.4977 24.0645C76.0005 24.0645 79.0241 23.3853 82.3975 22.4215C83.4714 22.1147 84.4428 21.9292 85.4132 21.444" stroke="black" stroke-width="1.5" stroke-linecap="round"/>
<path d="M47.421 27.5916C47.421 24.4352 47.8556 21.2536 48.2629 18.1156C48.69 14.8251 49.8261 11.6053 51.2097 8.50573C52.2356 6.20753 54.0249 4.68103 56.425 3.26048C57.9146 2.37883 59.4864 1.95438 61.3129 1.74816C64.1994 1.42227 66.9615 1.059 69.8959 1.059C71.4691 1.059 73.2644 0.845304 74.7838 1.23129C76.3606 1.63183 77.7267 2.24326 79.1806 2.86804C80.8782 3.59754 82.3744 4.86377 83.9048 5.80653C85.6114 6.85783 86.3936 8.37223 87.5064 9.81704C89.5629 12.4872 90.8362 16.1568 90.9794 19.3217C91.141 22.8928 90.3663 25.8039 88.1612 28.9124C85.6418 32.4642 79.0021 35 74.1056 35C69.0305 35 64.123 33.2909 59.3367 31.9849C56.5688 31.2297 53.8828 30.2962 51.5137 28.8742C50.7099 28.3917 50.4748 27.9361 49.4206 27.9361C48.5101 27.9361 47.8268 28.6253 47 28.6253" stroke="black" stroke-width="1.5" stroke-linecap="round"/>
<path d="M10.5618 50.1539C10.5618 49.224 10.6006 48.2852 10.5088 47.3586C10.4123 46.3841 10.3651 45.3585 10.2174 44.3946C9.8557 42.0348 9.41724 39.5951 9.41724 37.2008C9.41724 36.2003 9.31771 35.2557 9.72457 34.3212C10.0959 33.4682 10.8447 32.7263 11.5156 32.1167C11.9864 31.6888 12.7238 31.3143 13.084 30.7929C13.7041 29.8951 13.7363 28.5952 14.1967 27.6021C14.9513 25.9748 16.6532 24.489 18.2344 23.6729C19.7028 22.9151 21.6397 23.0031 23.2524 23.0031C25.6096 23.0031 27.8874 23.2384 30.2202 23.5727C31.2668 23.7227 32.1257 23.9611 33.0498 24.501C33.8763 24.9838 34.8268 25.5103 35.5084 26.1886C35.9898 26.6678 36.5599 27.0757 37.1193 27.4597C37.7425 27.8875 38.2619 28.4317 38.783 28.9777L38.799 28.9944C39.9295 30.1789 40.7324 31.5877 41.8458 32.7812C42.8755 33.885 43.3799 35.4462 43.9017 36.8211C44.625 38.7269 44.2302 40.955 44.2302 42.939M10.9433 48.7299L10.9394 48.6303C10.8655 46.7218 10.7915 44.8089 11.2082 42.9285C11.369 42.2031 11.7919 41.4078 12.0878 40.7239C12.4132 39.972 12.6562 39.1693 13.0416 38.4455C13.8892 36.8538 14.6883 35.2579 15.8076 33.8255C16.2846 33.215 16.3944 32.5902 17.2382 32.354C18.0299 32.1324 18.7428 31.922 19.5591 31.7897C21.333 31.5023 23.2971 31.7369 25.0804 31.7369C27.9185 31.7369 30.6179 32.008 33.3147 32.8339C34.8988 33.3191 36.3432 33.8547 37.5485 35.0543C38.1233 35.6265 38.5655 36.2531 38.9791 36.953C39.5846 37.9774 40.1752 39.1597 40.6483 40.2492C41.0301 41.1289 41.3157 42.0468 41.6974 42.9285C41.8615 43.3074 42.0786 43.6697 42.1372 44.0782C42.1743 44.3368 42.3227 44.4811 42.3227 44.7427M14.3769 30.9775C14.6668 31.5386 14.9352 31.791 15.4261 32.1167M11.134 50.5336C10.7144 50.9978 10.2756 52.0086 10.2756 52.6274C10.2756 53.43 10.1299 54.4032 10.318 55.1853C10.5826 56.2853 11.0145 57.4243 11.558 58.4078C11.7486 58.7528 12.2441 59.0089 12.374 59.2674M42.7042 45.1225C43.1321 44.2543 43.5842 43.4455 44.209 42.6964C44.3792 42.4924 44.6337 42.1158 44.9456 42.1848C45.5835 42.3259 45.5615 44.364 45.6079 44.7533C45.7682 46.0975 45.6326 47.4803 45.3748 48.8037C45.1866 49.7697 44.8743 50.7083 44.6859 51.6834C44.5247 52.518 44.3993 53.4269 44.3309 54.2782C44.2936 54.7424 44.1349 55.1866 44.1349 55.6494C44.1349 56.0545 44.0338 55.3249 43.9441 55.2803M13.8046 60.3117C14.8114 63.2713 16.2967 65.9958 17.8105 68.7079C18.1849 69.3788 18.8521 69.7974 19.3896 70.3324C19.8403 70.781 20.3314 71.3858 20.9103 71.6614C21.2578 71.8268 21.4284 72.0619 21.8164 72.0833C22.196 72.1043 22.3197 72.7224 22.4364 72.9852C22.734 73.6558 23.0534 74.2856 23.2259 75.0052C23.3504 75.5247 23.4227 76.1904 23.724 76.6401M43.2765 56.5144V63.7293M22.484 69.6151C23.1589 70.2868 23.7862 70.8234 24.7731 70.8492C25.1602 70.8594 25.5325 70.9617 25.9229 70.9389C26.418 70.9099 26.8916 70.7543 27.3907 70.7543C28.1601 70.7543 29.0184 70.8694 29.7699 70.7068C30.2806 70.5963 30.7689 70.5384 31.227 70.2585C31.8097 69.9026 32.6517 69.552 33.1134 69.0508C33.4266 68.7107 33.8051 68.5011 34.0989 68.0962C34.424 67.6482 34.5858 67.1161 34.8832 66.6722M21.3395 56.8941C20.9046 57.6325 20.4104 58.3314 19.9088 59.0248C19.528 59.5513 18.9634 59.8892 18.5735 60.4066M31.545 54.7107C32.1979 55.4129 33.4348 56.4194 34.5017 56.4194M22.5794 63.1597C23.6383 62.593 24.7007 61.9394 25.8912 61.6935C27.091 61.4456 28.3179 61.303 29.542 61.261C30.5728 61.2256 31.5799 61.261 32.5941 61.261M24.1055 56.7992C24.5093 57.1307 24.5648 57.2738 25.0592 57.2738M28.016 56.3245C28.0009 56.8336 27.5391 57.0755 27.5391 57.5586M14.7584 45.5022C16.1003 45.2221 17.5267 45.0907 18.7855 44.5318C19.4966 44.216 20.1292 43.7666 20.8202 43.4137C21.4671 43.0833 22.0787 42.7649 22.6748 42.3694M27.4437 41.6099C29.7615 42.7201 32.1928 42.6542 34.6924 42.6542M40.7966 58.7928C40.1139 59.7337 39.5672 60.839 39.101 61.9044C38.8482 62.4822 38.4727 63.0134 38.3168 63.6343M21.8164 73.5073C21.8164 74.3677 21.5303 75.1682 21.5303 76.023V78.4069C21.5303 79.3211 22.3419 80.031 22.8656 80.7011C23.1803 81.1039 23.7391 81.2422 23.9147 81.7665M21.1487 74.0769C21.0304 75.1746 20.9659 76.2891 20.6719 77.3574C20.5416 77.8308 20.3399 78.2808 20.195 78.7497C20.0938 79.077 19.904 79.3344 19.7923 79.6569C19.385 80.8325 19.4543 82.1124 19.7181 83.317C20.0188 84.6906 20.2903 86.1048 20.2903 87.5152C20.2903 87.9225 20.3145 88.4117 20.4599 88.7915C20.4834 88.853 20.4905 88.9913 20.4906 89.1266M20.4906 89.1266C20.4908 89.411 20.4601 89.6819 20.4864 89.1976C20.4877 89.1739 20.4891 89.1503 20.4906 89.1266ZM20.4906 89.1266C20.5668 87.9315 20.9238 86.7642 21.1541 85.5954C21.3147 84.7797 21.5308 83.97 21.9118 83.2327C22.0989 82.8704 22.2926 82.5115 22.484 82.1515C22.5447 82.0374 22.7084 81.5453 22.8285 81.4922C23.0254 81.4051 23.5887 81.4469 23.7822 81.4922C24.2672 81.6058 24.7247 82.0661 25.1016 82.373C25.1955 82.4494 25.5585 82.8628 25.5785 82.8371C25.6735 82.7156 25.716 82.524 25.7329 82.4019M25.7329 82.4019C25.7504 82.2752 25.7404 82.2233 25.7329 82.4019ZM25.7329 82.4019C25.7297 82.4781 25.7269 82.5963 25.7269 82.7685C25.7269 83.0854 25.8669 84.7155 25.9177 84.6145M25.6315 82.6209C26.0578 81.8503 26.4972 81.1839 27.0463 80.5007C27.2092 80.298 27.3547 79.9264 27.6345 79.8678C28.28 79.7326 28.9144 80.3553 29.489 80.7222C29.7897 80.9142 32.2153 82.4297 32.0218 82.5259M27.8252 78.9185C28.6019 77.8765 29.857 77.0052 30.8561 76.1654C31.8127 75.3615 32.7722 74.4912 33.691 73.6445C34.479 72.9182 35.2745 72.1685 36.033 71.4135C36.9402 70.5106 37.7812 69.3694 38.7937 68.5919C39.8093 67.8121 40.8348 67.0179 41.7133 66.092C42.2975 65.4764 43.658 64.6003 43.658 63.6343M43.5626 62.8749C44.2664 62.8749 44.2302 63.4346 44.2302 63.993C44.2302 64.635 44.2455 65.2027 44.0395 65.8178C43.6799 66.8915 43.1644 67.9396 42.6565 68.9506C41.7822 70.691 40.8975 72.1956 39.5143 73.5917C38.5937 74.521 37.7741 75.612 36.9444 76.6243C36.3449 77.3558 35.609 77.9351 35.0739 78.7339C34.1988 80.0404 33.339 81.4007 32.7425 82.8582C32.0168 84.631 30.9452 86.2642 30.0931 87.9793C29.1935 89.79 28.3949 91.6424 27.5868 93.4959C27.1738 94.4432 26.8049 95.4067 26.3733 96.3439C26.3206 96.4584 26.1084 96.9662 26.1084 96.6709M20.195 74.9313C19.721 75.0257 19.1462 75.5487 18.7219 75.8068C17.9017 76.3057 16.9924 76.6356 16.1732 77.1306C14.2053 78.3198 11.9629 79.0057 10.0372 80.2423C9.13446 80.822 8.07066 80.9882 7.20235 81.6715C6.67045 82.0901 6.00305 82.7542 5.69749 83.3803C5.46668 83.8533 5.43731 84.4621 5.39017 84.9731C5.30919 85.8508 5.2206 86.7552 5.2206 87.6365C5.2206 90.283 4.20091 92.5157 3.14878 94.9094C2.78608 95.7345 2.56331 96.6243 2.16851 97.4304C1.86567 98.0487 1.51488 98.6394 1.26241 99.2816C1.15166 99.5633 1.12671 99.8255 1.04516 100.11C0.811161 100.925 1.53238 100.753 2.15261 100.753C5.93413 100.753 9.71422 100.56 13.492 100.806C15.9298 100.965 18.3046 101.054 20.746 100.964C23.0899 100.877 25.4431 100.961 27.7881 100.938C30.4244 100.912 32.9928 100.546 35.6144 100.394C37.2453 100.3 38.8349 99.9594 40.4575 99.8248C42.6248 99.645 44.7844 99.5189 46.9591 99.5189C51.1952 99.5189 55.4333 99.424 59.6709 99.424C63.23 99.424 66.769 99.7087 70.3321 99.7087C71.7554 99.7087 73.1563 99.8986 74.5711 99.8986C76.0211 99.8986 77.5356 100.046 78.9797 99.8775C79.6457 99.8 80.2871 99.424 80.9508 99.424M43.0857 61.7357C44.266 62.3927 45.3561 63.057 46.4504 63.8558C47.1245 64.3479 47.5086 64.8318 48.0507 65.4433C48.9683 66.4784 49.9176 67.4857 51.1981 68.0592C51.9844 68.4114 52.694 68.7651 53.519 69.0455C54.8089 69.4839 56.1386 69.8371 57.456 70.1847C60.6954 71.0393 63.622 72.6163 66.6812 73.9292C67.6896 74.362 68.6974 74.7465 69.622 75.3321C70.3019 75.7628 71.1466 76.0991 71.7733 76.5874C72.5929 77.2257 73.318 78.0818 73.9352 78.9079C75.531 81.0439 76.8245 83.6992 77.655 86.2178C78.2857 88.1305 78.7429 90.0974 79.4036 92.0087C79.6939 92.8483 80.2816 93.6626 80.4527 94.5296C80.8156 96.3685 81.5461 98.1863 82 99.9935M54.1496 99.0442C54.268 96.2247 54.6427 93.7802 55.7286 91.1912C56.402 89.5858 57.1 88.0551 57.8799 86.5026C58.3507 85.5654 58.9032 84.732 59.4484 83.8339C60.2334 82.5406 60.7912 81.1448 61.6844 79.91C62.4856 78.8025 63.0833 77.5991 64.1272 76.6823C65.0943 75.8329 66.4019 75.3623 67.3118 74.4567M51.5744 68.7607C51.7384 70.5568 51.908 72.3467 52.1996 74.1297C52.3291 74.9212 52.6483 75.7519 52.2367 76.503C51.6924 77.4963 50.3871 78.0063 49.4548 78.5388C48.9237 78.8421 48.3995 79.0582 47.8546 79.3193C47.5591 79.4609 47.4159 79.678 47.0916 79.678M39.8428 72.0833C40.688 73.8259 42.177 75.5883 43.6262 76.8722C44.5623 77.7016 45.563 78.5247 46.6465 79.1611C47.1994 79.4859 47.5747 79.9162 48.0242 80.3636C48.9399 81.275 50.1661 81.9176 51.0021 82.8846C51.3944 83.3384 51.4698 83.5231 51.0657 84.0818C50.2202 85.2506 49.3924 86.4427 48.4481 87.5363C47.6313 88.4821 46.7064 89.1225 45.6989 89.82L45.6609 89.8463C44.8893 90.3806 44.2793 91.1124 43.5096 91.65C42.7051 92.2119 41.9 92.6733 41.2311 93.401C40.6031 94.0842 40.0318 94.8594 39.4507 95.5845C38.6539 96.5786 37.2676 98.028 37.2676 99.424M19.5273 88.9814C19.1962 91.6816 18.6477 94.3888 17.7575 96.9662C17.6031 97.4133 17.429 97.8595 17.429 98.3375C17.429 98.5873 17.4741 98.8346 17.3336 99.0442M24.9639 97.905C24.6654 98.889 24.4644 99.8953 24.1055 100.848M7.69043 51.9128C7.6134 53.1069 7.52608 54.2868 7.52608 55.4829C7.52608 55.6012 7.52071 55.7209 7.52608 55.839C7.54273 56.2051 7.82878 55.1713 7.97349 54.8346C8.2054 54.295 8.47873 53.7774 8.72677 53.2459C8.88252 52.9121 9.05559 52.5808 9.18786 52.2369C9.22604 52.1377 9.19411 51.8961 9.29287 51.9356C9.38668 51.9731 9.4051 52.871 9.41613 52.9537C9.52848 53.7963 9.7047 54.6309 9.80875 55.4738C9.84741 55.7869 9.86556 56.1184 9.95027 56.4233C10.0218 56.681 10.5922 55.2226 10.6579 55.0674C11.1187 53.9795 11.4746 52.9593 11.7353 51.8124C11.7471 51.7603 11.8703 51.2737 11.9225 51.2737C11.988 51.2737 12.3011 52.6532 12.3242 52.7619L12.3307 52.7921C12.5385 53.7674 12.7452 54.7374 13.0319 55.6929M13.9358 51.3376C13.8711 52.94 13.8536 54.5374 13.8536 56.1403C13.8536 56.7895 13.8944 56.4022 13.9815 55.9668C14.1947 54.9007 14.656 53.9129 14.9219 52.8624C15.0812 52.2331 15.1778 51.5676 15.4195 50.9632C15.6584 50.366 15.7433 51.0363 15.8259 51.3832C16.0478 52.3156 16.2006 53.2452 16.4741 54.1635C16.5444 54.3993 16.5807 54.6369 16.6476 54.8711C16.7735 55.3117 16.7926 54.869 16.8759 54.6063C17.3596 53.0808 17.7576 51.5004 18.1085 49.9406C18.1876 49.589 18.1762 49.5843 18.3277 49.9954C18.6806 50.9533 18.9028 51.9475 19.2635 52.9035C19.3845 53.2239 19.4462 53.5556 19.5877 53.8668C19.6291 53.9579 19.6699 53.6821 19.6881 53.5837L19.693 53.5573C19.7942 53.012 19.895 52.4688 20.0123 51.9265C20.1423 51.3249 20.1538 50.7169 20.2634 50.1141C20.2838 50.0017 20.3268 49.8941 20.341 49.7808C20.3434 49.7616 20.3414 49.5161 20.3638 49.5206C20.4561 49.539 20.5679 49.8722 20.5921 49.9314C20.827 50.5063 21.0541 51.0854 21.286 51.6617C21.5703 52.3683 21.9282 53.1147 22.1351 53.8485C22.2414 54.2254 22.1654 53.2878 22.1717 53.1911C22.2288 52.3144 22.3531 51.4444 22.3999 50.566C22.4331 49.9437 22.4565 49.306 22.546 48.6897C22.6513 47.9644 22.7949 48.6288 22.9067 48.9864C23.3873 50.5245 24.0811 51.987 24.5822 53.5198C24.7321 53.9785 24.7478 53.7255 24.783 53.3463C24.8553 52.5691 24.8238 51.7794 24.9474 51.0089C25.0407 50.4269 25.1104 49.8119 25.2761 49.2466C25.3976 48.8321 25.4733 48.7 25.6915 49.2238C26.1532 50.3318 26.5623 51.4671 26.9653 52.5976C27.0425 52.8143 27.0858 53.0348 27.1479 53.255C27.1988 53.4355 27.3622 52.6638 27.367 52.6341C27.5107 51.7457 27.4948 50.8508 27.4948 49.9543C27.4948 49.1621 27.7009 48.4214 27.7414 47.6396C27.7768 46.9539 28.093 47.9504 28.1523 48.1236C28.5163 49.1877 28.9214 50.2283 29.3347 51.2736C29.3797 51.3876 29.5447 51.899 29.5538 51.7895C29.6168 51.0331 29.6245 50.2883 29.6314 49.5297L29.6315 49.5199C29.6365 48.97 29.6421 48.3487 29.7547 47.8086C29.8946 47.1372 30.2826 48.5523 30.3527 48.7353C30.6985 49.6373 31.0135 50.5795 31.4576 51.438C31.6853 51.8784 31.7145 52.3247 31.8136 51.6024C31.9372 50.7021 32.0167 49.7602 32.1971 48.8723C32.3134 48.3004 32.5505 47.7639 32.6765 47.1968C32.6912 47.1305 32.8129 47.2513 32.8454 47.3109C33.1077 47.7917 33.2644 48.3521 33.4663 48.8586C33.918 49.992 34.3807 51.1019 34.9363 52.1867C35.0048 52.3204 35.0458 51.9052 35.0733 51.7576C35.1784 51.194 35.2618 50.6304 35.3472 50.0638C35.4566 49.3379 35.8154 48.6024 35.8768 47.8862C35.9123 47.4722 36.3301 48.4781 36.3698 48.5618C36.6766 49.2083 37.0659 49.8129 37.356 50.4656C37.3878 50.5373 37.5307 49.4609 37.5386 49.3379C37.5909 48.5213 37.7708 47.7287 37.8444 46.9183C37.8678 46.6613 38.4103 47.8503 38.4745 47.982C38.5662 48.1704 39.7143 50.3083 39.8395 50.1414C40.0066 49.9186 40.015 49.517 40.086 49.2558C40.2611 48.6118 40.4577 47.9719 40.6384 47.3292C40.6657 47.2323 41.1084 45.3185 41.3369 45.6583C41.8205 46.3774 42.0451 47.3887 42.6791 47.9957C43.052 48.3527 43.2207 46.4408 43.2315 46.3796C43.2877 46.0635 43.2669 45.2694 43.5237 45.462C43.7603 45.6394 43.8848 46.1521 44.0122 46.407C44.2985 46.9797 44.5186 47.5394 44.7837 46.6216C44.9741 45.9627 45.0808 46.1034 45.3362 46.722C45.5056 47.1327 45.6853 47.5344 45.884 47.9318C45.9702 48.1042 46.0549 48.364 46.167 48.0597C46.4893 47.1851 46.5936 46.2502 47.0892 45.4392C47.232 45.2056 47.2786 45.5641 47.2992 45.6674M44.0944 45.9961C42.607 46.1318 41.135 46.3044 39.6569 46.4892M7.69044 56.5147C7.78836 57.0369 10.3496 56.4676 10.594 56.4279C14.4869 55.7953 18.4103 55.4013 22.3178 54.8803C23.8997 54.6693 25.436 54.345 26.9835 53.9672C28.6781 53.5535 30.4344 53.3644 32.1058 52.8715L32.1612 52.8552C33.8274 52.3639 35.4939 51.8725 37.1231 51.2691C38.2879 50.8377 39.4072 50.3529 40.6065 50.0182C42.2193 49.5681 43.8257 49.4409 45.4549 49.1188C46.1283 48.9857 46.8862 49.0119 47.5366 48.8312C48.0919 48.677 46.6059 48.7077 46.5597 48.7079C43.4523 48.7248 40.2271 49.1329 37.1916 49.7854C34.8755 50.2832 32.6485 51.0166 30.3071 51.4152C28.6095 51.7041 26.8983 51.7899 25.2213 52.205C22.9605 52.7646 20.6785 53.2649 18.3916 53.7024C15.5453 54.2469 12.8018 55.0083 9.90006 55.2455C9.42848 55.284 8.95735 55.282 8.4848 55.282C8.1789 55.282 8.21773 55.1952 8.40263 54.9807C10.176 52.9236 13.3794 52.2606 15.9126 51.8124C20.0956 51.0722 24.3676 51.0701 28.5814 50.598C30.1346 50.424 31.6601 50.1568 33.1924 49.8584C34.0854 49.6845 34.9875 49.5868 35.8677 49.3471C38.0039 48.7654 40.1248 48.1742 41.9943 46.9777C42.068 46.9305 42.6101 46.4401 42.5787 46.4253C42.3795 46.3315 41.979 46.4183 41.7843 46.4435C40.6814 46.5864 39.5843 46.7778 38.4882 46.964C37.3961 47.1494 36.3022 47.346 35.2057 47.5027C34.4251 47.6142 33.6228 47.5565 32.85 47.6853C32.1562 47.8009 31.5171 48.2091 30.8869 48.4979C30.8236 48.527 30.7719 48.5572 30.755 48.5675M30.755 48.5675C30.7475 48.572 30.7468 48.5726 30.755 48.5675ZM30.755 48.5675C30.7682 48.5591 30.8047 48.5355 30.8732 48.4888C31.4495 48.0955 32.0936 47.8059 32.7632 47.6123C34.5961 47.0823 36.4836 46.6989 38.3519 46.3194L38.4151 46.3066C40.4034 45.9027 42.4767 45.5491 44.4094 44.9278C45.3856 44.6141 46.3505 44.3526 47.3814 44.3526M48.121 46.3248C47.984 46.5596 46.9797 46.9748 46.9797 47.2699C46.9797 47.4594 47.8888 47.3931 48.0388 47.3931M26.5087 52.4059C24.3453 53.5358 22.2129 54.6036 19.8433 55.2272C19.3182 55.3654 18.6713 55.6107 18.1268 55.6107M5.68932 51.7955L6.9197 57.952L49.2546 49.5702L48.0242 43.4137L5.68932 51.7955Z" stroke="black" stroke-width="1.5" stroke-linecap="round"/>
</svg>
