<svg width="355" height="187" viewBox="0 0 355 187" fill="none" xmlns="http://www.w3.org/2000/svg">
<path d="M120.513 63.4174C120.513 61.5923 120.202 59.8022 120.202 57.9735C120.202 56.3901 120.174 54.8039 120.202 53.2209C120.261 49.918 121.541 47.1952 123.434 44.5452C124.299 43.3337 125.219 42.2064 126.026 40.9591C127.182 39.1739 128.242 37.5006 129.604 35.8522C132.074 32.8622 135.132 30.2771 138.418 28.1962C141.091 26.5029 143.81 24.999 147.033 24.999C148.169 24.999 149.443 24.8291 150.567 25.0335C151.426 25.1897 152.612 25.2235 153.41 25.552C154.12 25.8444 154.891 25.8662 155.631 26.1223C156.415 26.3936 157.616 26.617 158.232 27.1852C158.891 27.7933 159.714 28.1383 160.366 28.7665C160.755 29.1409 161.311 29.9762 161.887 29.9762M177.441 35.4202C176.989 34.9234 176.718 34.2993 176.266 33.7956C175.362 32.7881 174.484 31.7535 173.561 30.7626C172.824 29.9712 172.133 29.243 171.254 28.611C170.732 28.2357 170.149 27.5887 169.543 27.3666C167.675 26.6818 166.07 26.2433 164.065 26.2433M169.82 30.1318C169.162 30.1318 168.505 29.8252 167.901 29.5874C167.05 29.2521 166.153 29.1094 165.257 28.922C164.581 28.7804 163.822 28.8875 163.131 28.8875M177.286 35.8868C177.69 35.8868 178.176 37.001 178.297 37.3903C178.664 38.5747 179.085 39.8205 179.619 40.9505C180.163 42.1032 180.404 43.8051 180.552 45.0637C180.737 46.6406 181.055 48.1804 181.209 49.7644C181.407 51.8178 181.743 53.8798 181.796 55.9515C181.83 57.2705 181.53 58.8866 181.952 60.1511M171.997 65.9061C171.997 64.5358 172.11 63.2017 173.008 62.104L173.012 62.0989C173.431 61.5875 174.063 60.8149 174.641 60.4967C175.016 60.2906 175.461 59.9006 175.886 59.84C176.23 59.7908 176.732 59.7484 177.044 59.6067C180.268 58.1413 182.029 61.5177 182.85 64.0741C183.163 65.0467 183.484 66.0106 183.806 66.9742L183.853 67.1158C184.096 67.8464 184.154 68.5785 184.363 69.3279C184.78 70.8297 184.624 73.3422 183.974 74.7718C183.336 76.1743 182.977 77.4122 181.831 78.4702C180.996 79.2412 179.919 79.438 178.841 79.438M120.513 64.5062C119.978 64.6846 119.821 66.1835 120.436 66.3727C121.413 66.6735 121.635 68.1058 122.233 68.8527C122.529 69.2223 122.783 69.3937 123.011 69.8118C123.238 70.2291 123.316 70.6882 123.538 71.108C123.922 71.8339 124.582 72.095 125.335 72.2832M126.891 57.1958C126.773 58.3666 126.31 59.5641 126.078 60.7214C125.735 62.4383 125.334 64.1505 124.989 65.8715C124.758 67.0269 124.868 68.2659 124.868 69.4489V71.8166C124.868 72.3434 125.978 70.8869 126.113 70.7278M132.179 52.3741C131.716 53.0432 131.138 53.5805 130.528 54.1109C130.094 54.489 129.415 55.086 129.068 55.5194C128.521 56.2039 127.725 56.448 127.167 57.0057C126.938 57.2345 126.597 57.3121 126.415 57.5847C126.02 58.1776 129.336 56.9353 129.552 56.8674C130.965 56.4244 132.63 56.0551 133.864 55.1911C133.975 55.1132 134.82 54.637 134.823 54.6899C134.865 55.4902 134.463 56.0568 134.348 56.807C134.279 57.2565 133.9 57.6227 134.512 57.3168C136.073 56.5364 137.759 56.0219 139.316 55.2429C140.266 54.7683 140.405 54.5542 140.232 55.8478C140.153 56.4399 140.111 56.9928 140.111 57.5933C140.111 58.4254 142.677 56.8066 143.084 56.6082C143.98 56.1714 144.819 55.8444 145.624 55.2688C145.835 55.1183 146.034 56.9961 146.091 57.1612C146.301 57.7634 146.512 58.3727 146.731 58.9672C146.981 59.6465 148.857 58.0108 149.254 57.7316C149.786 57.3568 149.794 57.7228 150.075 58.2846C150.441 59.0176 150.916 59.7317 151.345 60.4276C151.757 61.0961 152.257 61.6978 152.624 62.3978C153.116 63.3372 153.246 62.2085 153.402 61.6373C153.575 60.9972 153.955 60.2903 153.955 59.6153C153.955 59.0532 154.239 59.8035 154.3 59.9264C154.877 61.0803 155.347 62.807 156.322 63.6939C157.322 64.6027 159.614 60.9701 160.021 61.8966C160.38 62.7153 160.812 63.4697 161.196 64.2729C161.478 64.8623 162.131 65.2442 162.509 65.7851C162.989 66.4708 163.466 67.1072 163.909 67.7725M126.113 80.9934C125.474 81.7126 124.935 82.8657 124.592 83.7586C124.228 84.7051 123.474 85.4875 123.158 86.4373M122.846 87.3706C122.909 87.3784 123.59 88.7697 123.659 88.9606C123.878 89.5702 124.286 89.9307 124.592 90.4814C125.052 91.3097 126.213 92.8145 127.236 92.8145C128.564 92.8145 130.036 93.2585 131.367 92.8491C132.705 92.4373 134.255 92.4494 135.29 91.4146C136.278 90.4267 136.378 89.1856 136.378 87.8372C136.378 86.3829 135.75 85.618 134.754 84.7264C134.035 84.0833 132.359 84.8592 131.626 85.0029C130.261 85.2705 128.949 85.7529 127.547 85.8152C126.018 85.8832 124.583 86.5843 123.158 87.0595M136.378 85.8152C137.454 85.752 138.363 85.0375 139.489 85.0375M139.8 84.1043C140.574 83.4167 141.888 83.184 142.877 83.05C144.211 82.8692 145.507 82.4546 146.86 82.2464C147.634 82.1273 148.463 82.0059 149.28 81.8489C150.001 81.7103 150.737 81.3045 151.466 81.3045M140.734 84.5709C140.734 86.2295 142.068 88.0326 143.533 88.6495C145.531 89.4905 147.58 89.3926 149.755 89.3926C150.994 89.3926 152.063 88.6128 153.021 88.0273C153.769 87.5703 153.488 86.0498 153.488 85.2794C153.488 84.6381 153.599 83.4015 153.142 82.8945C152.685 82.3868 151.917 81.8963 151.621 81.3045M152.71 81.6156C153.343 80.825 153.832 79.8834 154.438 79.0406C155.364 77.7555 156.391 76.6812 157.463 75.5496C158.125 74.8507 158.939 74.2976 159.632 73.6053C160.494 72.7426 161.278 71.8651 162.198 71.0475C164.121 69.3381 166.42 67.9229 168.204 66.1394C168.763 65.5802 169.432 65.0705 170.096 64.6617C170.607 64.3475 171.34 63.8326 171.531 63.2619M125.646 72.7498C125.646 74.1975 125.192 75.6502 125.033 77.0877C124.971 77.6419 124.987 78.3038 125.214 78.8159C125.349 79.1185 125.77 79.654 125.802 79.9047C125.905 80.7279 126.974 81.2472 127.193 82.0131C127.284 82.3305 127.581 82.4979 127.703 82.8254C127.902 83.3622 128.139 83.9543 128.446 84.4153M127.668 80.3713C129.143 79.1774 130.528 78.3493 132.49 78.3493C133.58 78.3493 134.043 79.1796 135.134 78.8159M142.756 77.5716C143.349 76.5624 145.338 75.4488 146.489 75.394C147.262 75.3572 148.047 75.394 148.822 75.394M129.379 87.3706C129.379 87.8618 129.578 88.9796 129.88 89.3581C130.218 89.7801 130.111 90.6919 130.623 90.948M133.89 94.8365C134.318 94.9316 134.436 95.7544 134.823 96.0031C135.29 96.3029 135.904 96.8684 136.301 97.2647C137.398 98.3621 138.35 99.6484 139.256 100.903C140.362 102.433 141.346 103.981 142.367 105.569C143.083 106.683 144.224 107.525 145.08 108.524C146.702 110.416 148.309 112.28 150.066 114.037C151.58 115.552 154.784 115.409 156.478 114.279C157.663 113.489 158.941 112.667 160.176 111.946C161.81 110.993 163.364 109.242 164.514 107.764C166.822 104.796 168.348 101.285 171.055 98.5781C172.151 97.4824 172.927 96.0258 173.795 94.7501C174.844 93.2068 175.987 91.6978 176.784 90.0148C177.213 89.1094 177.441 87.6581 177.441 86.6793V83.6376M128.446 81.3045C130.61 79.6496 133.421 79.438 136.067 79.438M142.289 78.1937C143.985 77.7447 145.492 76.849 147.171 76.4137C148.063 76.1824 149.026 76.1717 149.945 76.1717C150.062 76.1717 150.883 76.0665 150.403 76.0248C149.576 75.9529 148.71 76.0162 147.88 76.0162C146.523 76.0162 144.973 75.8135 143.689 76.3272M141.356 78.1937C141.46 77.2567 143.002 76.6383 143.689 76.1803C144.744 75.4773 145.993 75.0756 147.249 74.936C148.659 74.7793 149.976 75.0604 151.31 75.394M132.49 87.8372C133.06 87.8372 133.536 87.5262 134.045 87.5262M144.311 84.882C145.245 84.882 146.114 84.949 146.955 84.6487C147.428 84.4799 147.958 84.5497 148.424 84.3376C148.81 84.1622 149.329 83.9487 149.755 83.9487M134.356 87.9928C134.356 88.4932 134.512 88.9283 134.512 89.3926M148.977 84.5709C149.192 85.4579 149.747 86.0883 149.91 86.904M138.867 88.6149C138.528 90.352 138.556 92.004 138.556 93.7823C138.556 95.3226 138.473 96.6941 139.092 98.1375C139.448 98.9688 140.058 99.0581 140.906 98.7855C141.788 98.5023 142.456 98.2584 143.378 98.2584C144.536 98.2584 144.888 98.0322 145.844 97.4171L145.866 97.403C146.546 96.9663 147.224 96.5239 147.888 96.0809M145.244 103.08C147.224 103.08 149.493 103.332 151.31 102.423C152.099 102.029 152.967 101.656 153.834 101.335C154.741 100.999 155.424 100.168 156.132 99.8138M145.866 103.391C145.943 104.081 147.455 104.74 147.966 105.024C148.561 105.355 150.445 105.181 151.146 105.094C152.195 104.962 153.449 103.467 154.11 102.769C154.492 102.366 154.737 101.94 154.966 101.438C155.228 100.86 155.857 100.52 156.132 99.9694M151.155 97.9473C153.069 97.9473 155.191 98.3511 156.789 99.4163C158.167 100.335 159.895 101.585 160.643 103.08M142.289 106.191C141.323 106.191 140.792 107.459 139.956 107.712C139.42 107.874 138.272 108.598 138.089 109.146M43.3654 136.677C43.3654 139.833 44.4542 142.944 44.4542 146.096C44.4542 147.129 44.7653 148.11 44.7653 149.137C44.7653 150.629 44.9208 152.117 44.9208 153.613C44.9208 156.469 44.8556 159.306 44.7653 162.151C44.637 166.192 44.6097 170.244 44.6097 174.3C44.6097 176.658 43.5209 178.834 43.5209 181.161M43.3654 181.939C46.8227 181.215 50.5702 181.628 54.0977 181.628C58.2804 181.628 62.4307 181.039 66.6273 181.006C68.961 180.987 71.379 180.662 73.6785 180.297C75.9721 179.934 78.4276 179.872 80.7469 179.727C87.3748 179.313 94.0828 179.606 100.725 179.606C102.468 179.606 104.209 179.557 105.936 179.839C108.38 180.239 110.583 181.028 113.091 181.161C118.078 181.427 123.025 181.839 128.031 181.93C134.914 182.056 141.76 182.561 148.649 182.561C151.251 182.561 153.829 182.545 156.426 182.397C161.106 182.13 165.755 181.503 170.425 181.196C175.961 180.832 181.627 181.161 187.171 181.161H208.636C212.385 181.161 216.12 181.317 219.869 181.317C222.469 181.317 225.083 181.237 227.681 181.351C234.658 181.658 241.632 181.317 248.609 181.317H269.893C274.803 181.317 279.714 181.006 284.617 181.006H291.988C293.561 181.006 295.76 181.352 297.052 180.384C297.347 179.793 296.744 179.041 296.55 178.483C296.328 177.841 296.118 177.16 296.118 176.478C296.118 173.271 296.492 170.106 296.706 166.904C296.97 162.948 296.74 158.901 296.74 154.936C296.74 152.536 296.847 150.083 296.585 147.72M43.5209 136.521C56.3899 136.785 69.2199 136.055 82.0949 136.055H95.385C98.6427 136.055 101.855 136.366 105.124 136.366H114.663C115.42 136.366 115.33 136.708 115.605 137.377C115.975 138.275 116.003 139.417 116.003 140.375C116.003 141.294 116.209 142.219 116.348 143.123C116.517 144.22 116.625 145.201 116.625 146.32M44.6097 147.098C51.5499 147.098 58.4653 146.993 65.4003 146.943C69.0464 146.916 72.7183 146.648 76.3659 147.02C81.0412 147.497 85.8354 146.98 90.5287 147.288C95.2702 147.6 100.176 147.853 104.933 147.556C108.049 147.361 111.209 147.484 114.326 147.219C118.45 146.868 122.676 147.098 126.813 147.098H148.753C153.375 147.098 157.987 147.409 162.613 147.409H172.118C180.978 147.409 189.803 148.187 198.672 148.187H242.664C251.71 148.187 260.792 147.747 269.832 148.066C272.732 148.168 275.623 148.187 278.525 148.187C280.589 148.187 282.807 148.173 284.859 147.945C287.175 147.688 289.586 147.954 291.867 147.53C293.513 147.224 295.219 147.254 296.896 147.254M119.425 152.542C118.024 152.542 115.938 153.172 115.216 154.495C114.606 155.614 114.447 156.375 114.447 157.675C114.447 159 115.466 160.418 116.547 161.019C118.005 161.829 120.068 161.408 121.671 161.408C123.076 161.408 124.293 161.361 125.335 160.319C126.392 159.262 126.407 157.718 125.957 156.344C125.569 155.156 124.549 154.05 123.469 153.51C122.865 153.208 122.285 152.8 121.68 152.464C121.159 152.175 120.459 152.021 120.047 151.609M110.403 165.296C112.484 164.913 114.506 164.474 116.625 164.398C118.524 164.329 120.428 164.363 122.328 164.363H125.888C127.628 164.363 129.369 164.207 131.09 164.207M119.891 165.141C119.588 166.482 119.425 167.678 119.425 169.029M126.113 164.83C125.868 166.115 125.529 167.743 125.957 169.029M114.136 169.651C113.768 170.62 112.561 172.852 113.125 174.093C113.282 174.437 113.426 174.574 113.842 174.62C115.696 174.826 117.701 174.641 119.563 174.629C121.359 174.617 123.152 174.473 124.955 174.473C125.455 174.473 128.373 174.774 128.601 174.318M141.2 153.32C140.892 156.185 139.738 159.489 138.176 161.944C137.931 162.328 137.551 162.862 137.225 163.188C136.889 163.524 136.281 163.781 136.067 164.207M139.956 160.008C141.776 161.173 143.627 162.735 145.711 163.43M146.955 158.608C147.891 158.608 148.692 158.655 149.565 158.332C149.847 158.227 149.909 158.026 150.256 157.951C150.642 157.869 151.775 157.835 151.932 157.519M151.621 153.786C151.955 155.694 152.602 157.685 152.71 159.628C152.743 160.227 153.021 160.791 153.021 161.408M138.4 168.563C141.512 168.035 144.522 167.197 147.655 166.774C149.032 166.588 150.763 166.294 152.123 166.731C153.239 167.089 153.39 169.783 153.497 170.74C153.698 172.549 153.177 174.243 153.177 176.029M163.131 154.253C161.802 154.253 159.918 154.628 159.01 155.739C158.261 156.654 158.31 157.488 158.31 158.608C158.31 160.853 162.816 161.408 164.367 161.408C165.324 161.408 166.993 161.763 167.452 160.596C167.77 159.785 167.888 157.891 167.608 157.018C167.002 155.134 165.412 154.564 163.598 154.564M168.886 155.964C169.681 155.824 170.683 155.832 171.436 155.497C171.612 155.419 171.616 155.342 171.842 155.342M167.487 159.852C169.07 159.852 170.602 159.623 172.153 159.541C172.707 159.512 173.544 159.73 173.708 159.075M174.33 153.164C174.228 155.354 174.019 157.539 174.019 159.731C174.019 160.463 174.175 161.161 174.175 161.874M161.887 166.23C163.166 166.325 164.192 166.29 165.413 165.918C166.342 165.636 167.231 165.378 168.195 165.262C169.536 165.1 170.773 164.985 172.127 164.985C173.293 164.985 174.798 165.328 175.333 166.549C177.579 171.683 167.383 169.962 165.032 169.962C164.706 169.962 164.112 169.846 163.875 170.083C163.331 170.627 162.633 171.444 162.285 172.14C161.694 173.32 161.392 174.606 162.656 175.476C163.414 175.997 164.677 175.717 165.542 175.717H169.154C170.054 175.717 171.107 175.865 171.997 175.683C172.599 175.559 173.197 175.39 173.786 175.259C174.202 175.167 174.564 175.29 174.952 175.095M185.529 155.653C189.312 155.625 193.143 155.653 196.884 155.653M188.484 156.275C188.484 158.338 188.415 160.335 188.917 162.341C189.125 163.177 189.262 163.932 189.262 164.804C189.262 165.637 189.729 166.447 189.729 167.318M195.173 156.586C195.187 159.182 195.191 161.899 195.795 164.449C195.913 164.948 196.106 165.279 196.106 165.797C196.106 166.666 196.261 167.525 196.261 168.407M186.307 169.185C187.211 169.163 188.021 168.874 188.934 168.874H193.738C195.132 168.874 196.635 169.021 198.024 168.839C198.414 168.788 199.518 168.738 199.683 168.407M202.794 152.542C202.794 156.346 202.598 160.218 203.036 164C203.281 166.111 203.448 168.289 203.581 170.412C203.613 170.933 203.846 171.4 203.892 171.924C203.942 172.504 203.975 173.111 204.047 173.687C204.089 174.022 204.194 174.27 204.194 174.629C204.194 175.742 204.291 174.416 204.35 174.007M203.261 161.252C203.724 161.819 205.93 162.221 206.683 161.719M210.882 155.031C211.508 158.012 212.282 160.723 212.282 163.741M211.349 154.72C215.2 154.72 219.062 154.628 222.911 154.72C223.48 154.733 222.392 160.426 222.392 161.183C222.392 162.184 222.15 162.935 221.701 163.793C221.398 164.372 219.253 164.082 218.668 164.043C217.645 163.975 216.662 163.896 215.626 163.896C214.539 163.896 213.517 164.207 212.438 164.207M222.703 157.053C223.666 156.906 224.835 156.586 225.814 156.586M223.17 161.719C223.974 161.545 224.955 161.54 225.589 160.941C225.982 160.571 225.97 160.519 225.97 159.852M225.814 153.942C225.814 156.374 225.97 158.813 225.97 161.235C225.97 161.967 225.965 162.689 226.117 163.369C226.311 164.243 226.397 165.314 226.903 166.074M214.149 169.34C214.149 169.492 213.621 173.734 214.615 173.851C215.295 173.931 215.833 174.308 216.603 174.318C220.919 174.372 225.224 174.007 229.547 174.007M54.3275 144.544C54.0819 143.838 54.0537 142.858 54.1675 142.117C54.2394 141.65 54.5436 141.207 54.6566 140.755C54.7403 140.421 54.9518 140.136 55.1914 139.896C55.2913 139.796 55.3541 139.659 55.4793 139.59C55.5787 139.535 55.7219 139.553 55.8038 139.485C56.1862 139.166 56.4267 140.165 56.4849 140.349C56.5647 140.6 56.7602 140.877 56.7911 141.139C56.8221 141.403 56.7866 141.637 56.8779 141.893C57.1551 142.673 57.1811 143.446 57.3076 144.252C57.3234 144.353 57.3426 144.794 57.4538 144.526C57.5841 144.212 57.7202 143.882 57.8195 143.557C58.0644 142.756 58.2528 141.922 58.3999 141.098C58.4876 140.607 58.7264 140.209 58.8524 139.736C58.9543 139.354 59.0979 139.361 59.4649 139.361C60.5851 139.361 60.3333 142.618 60.3333 143.374C60.3333 143.7 60.4156 143.986 60.4156 144.279C60.4156 144.631 60.3898 145.021 60.6624 144.544M62.6369 139.115C62.5809 140.85 62.3888 142.726 62.6369 144.462M62.966 139.032C63.4331 139.032 63.9915 139.11 64.4515 138.987C64.7121 138.916 64.9186 138.838 65.1919 138.872C65.4956 138.91 66.5005 139.368 66.5814 139.732C66.675 140.153 66.8113 140.746 66.5219 141.107C66.4547 141.191 66.9606 141.301 66.9973 141.336C67.163 141.492 67.271 141.717 67.3447 141.93C67.7537 143.112 66.667 143.553 65.7267 143.804C64.8825 144.029 64.1221 144.215 63.2128 144.215M73.9904 139.361C72.9976 139.263 71.8516 139.175 70.8823 139.462C70.4533 139.589 70.0975 139.668 69.7762 140.001C69.4139 140.377 69.2285 141.059 69.2186 141.583C69.2116 141.955 69.251 142.316 69.3649 142.67C69.4139 142.823 69.4778 143.304 69.5888 143.393C70.1795 143.865 71.3285 143.639 72.0524 143.639H74.484M80.6543 138.868C80.6613 139.456 80.5524 141.053 81.4359 141.249C82.1406 141.406 82.9081 141.089 83.6161 141.089M79.4203 142.488C81.4541 142.827 83.6087 142.652 85.6729 142.652M81.2302 143.228C81.2145 143.498 80.8575 144.791 81.3948 144.791M82.7111 143.393C82.8945 143.815 83.1225 144.239 83.1225 144.709M88.7169 139.115C88.5731 139.862 88.334 140.55 88.1593 141.281C88.1263 141.419 88.0587 141.521 88.0587 141.665M88.7169 140.513C89.4427 141.004 90.103 141.551 90.9382 141.829M86.0842 144.215C87.204 144.179 88.4028 144.246 89.5031 143.987C89.734 143.932 90.0017 143.968 90.2389 143.968C90.9077 143.968 91.5903 143.804 92.2546 143.804M95.6277 138.456C94.673 139.692 94.2745 140.399 92.8305 140.76M94.2291 139.773C95.5811 140.022 96.8616 140.76 98.2604 140.76M95.2986 141.171V142.488M93.3241 142.734C94.6898 143.03 96.1274 142.899 97.5199 142.899M94.3936 144.956C94.936 144.956 95.6408 144.764 96.1533 144.878C96.437 144.941 96.3681 145.667 96.3681 145.861M99.5767 139.032C99.6173 139.427 99.4895 141.829 100.317 141.829C101.032 141.829 101.764 141.875 102.456 141.665C103.038 141.488 103.206 141.487 103.197 140.806C103.191 140.393 103.232 139.338 102.785 139.115M100.482 139.937H101.88M101.469 141.912C101.469 142.213 101.683 144.067 101.387 144.215M99.4944 144.544C101.26 144.544 103.017 144.38 104.787 144.38C105.002 144.38 106.379 144.514 106.488 144.298M315.239 151.771C314.674 150.737 314.343 149.774 314.156 148.611C314.058 148.007 314.072 147.327 314.072 146.711C314.072 145.227 315.014 143.639 316.27 142.872C317.02 142.414 317.712 141.795 318.433 141.296C318.901 140.972 319.751 140.987 320.307 140.987C321.098 140.987 321.716 141.308 322.452 141.521C322.957 141.667 323.503 141.605 324.028 141.605C325.261 141.605 326.273 142.106 326.882 143.189C327.333 143.992 327.26 145.25 327.26 146.154C327.26 147.293 327.328 148.437 327.328 149.569V150.844C327.328 151.064 327.316 151.674 327.122 151.771M315.308 152.183C314.673 152.21 314.661 153.342 314.865 153.763C315.109 154.265 315.485 154.486 315.995 154.656M316.27 152.389C316.132 150.907 315.988 149.524 316.491 148.115C316.648 147.675 317.355 147.058 317.849 147.032C318.595 146.992 318.974 147.478 319.551 147.856C320.012 148.157 320.335 148.387 320.856 148.581C321.365 148.77 321.966 148.658 322.486 148.611C322.821 148.582 323.146 148.486 323.482 148.474C323.682 148.467 323.828 148.344 324.016 148.337C324.265 148.327 324.499 148.268 324.753 148.268C324.917 148.268 325.096 148.404 325.237 148.474C325.453 148.582 325.832 148.673 326.008 148.833C326.686 149.449 326.916 150.273 326.916 151.153M326.779 151.565C326.791 151.973 326.97 152.479 326.794 152.87C326.679 153.127 326.573 153.482 326.573 153.763M316.064 154.931C316.064 155.22 316.159 155.528 316.304 155.789C316.502 156.145 316.6 156.566 316.819 156.907C317.266 157.602 317.384 158.449 317.987 159.052C318.815 159.88 319.86 160.494 321.043 160.494C322.537 160.494 324.32 160.069 324.787 158.434C324.881 158.104 324.981 157.811 325.13 157.503C325.295 157.163 325.538 156.715 325.607 156.335C325.742 155.593 326.161 154.868 326.161 154.106M318.056 151.702C318.445 151.519 318.792 151.359 319.223 151.359C319.399 151.359 319.973 151.278 320.047 151.428M319.086 151.84C319.132 152.042 319.109 152.287 319.223 152.458M322.932 151.565C323.321 151.556 323.653 151.359 324.031 151.359H324.718M323.757 151.702C323.782 151.908 323.805 152.114 323.825 152.32M320.803 154.999C320.941 155.068 321.059 155.137 321.215 155.137M322.177 154.999C322.085 155.101 322.013 155.216 321.971 155.343M320.116 157.06H321.833C322.288 157.06 323.099 157.138 323.344 156.648M319.361 156.648C319.502 156.774 319.683 156.817 319.841 156.923M309.625 163.871C310.089 162.836 310.812 161.944 311.335 160.946C311.454 160.718 311.706 160.143 311.939 160.01C312.112 159.911 312.313 159.669 312.375 159.483M312.375 159.307C312.375 158.888 311.91 156.909 312.635 156.909C312.985 156.909 313.174 157.656 313.298 157.903C313.473 158.255 313.666 158.614 313.837 158.956M313.077 159.659C313.628 159.46 314.187 159.073 314.803 159.073C314.99 159.073 315.151 159.015 315.329 159.015C315.536 159.015 315.472 159.247 315.593 159.307M314.071 160.478C314.427 160.288 314.779 160.081 315.151 159.922C315.231 159.887 315.305 159.797 315.388 159.779C315.507 159.752 315.656 159.665 315.768 159.659C316.039 159.643 316.133 160.038 316.236 160.244M314.774 161.238L314.779 161.236C315.192 161.015 315.541 160.829 316.002 160.829C316.321 160.829 316.282 160.92 316.412 161.18M314.598 162.233C315.136 162.063 315.778 161.738 316.353 161.706C316.617 161.692 316.546 162.166 316.412 162.233M316.529 162.584C315.861 162.846 315.108 162.88 314.458 163.169C314.376 163.206 314.28 163.442 314.234 163.52C314.18 163.613 313.959 163.813 313.867 163.874C313.476 164.135 312.964 164.497 312.739 164.924C312.621 165.148 312.376 165.386 312.316 165.626M309.391 163.169C309.19 163.191 309.04 163.481 309.04 163.65C309.04 164.002 309.237 164.244 309.479 164.485C309.899 164.906 310.363 165.321 310.824 165.711C311.364 166.167 311.927 166.621 312.68 166.621C313.186 166.621 313.882 166.815 313.717 166.072C313.663 165.829 313.293 165.626 313.077 165.626M309.04 163.579C308.942 163.968 308.852 164.359 308.721 164.739C308.67 164.887 308.584 165.047 308.572 165.204C308.556 165.409 308.479 165.641 308.396 165.831C308.237 166.197 308.058 166.859 308.117 167.265C308.211 167.914 308.781 168.375 309.027 168.948C309.117 169.159 309.312 169.347 309.388 169.55C309.468 169.765 309.622 170.038 309.787 170.203C309.922 170.338 310.563 170.016 310.759 169.956C311.134 169.841 311.329 169.75 311.556 169.416C311.705 169.197 311.882 169.002 312.024 168.773C312.144 168.577 312.246 168.374 312.433 168.227C312.523 168.156 312.729 167.947 312.788 167.85C312.894 167.673 313.121 167.527 313.239 167.323C313.421 167.01 313.648 166.81 313.72 166.445M307.87 166.328C307.29 167.174 306.601 167.982 306.14 168.903C305.958 169.267 305.784 169.64 305.617 170.011C305.508 170.252 305.505 170.456 305.432 170.704C305.064 171.939 304.676 173.22 304.59 174.516C304.568 174.845 304.442 175.197 304.392 175.527C304.33 175.93 304.271 176.335 304.245 176.743C304.2 177.468 304.213 178.195 304.463 178.882C304.579 179.2 304.802 179.942 305.211 180.016C305.887 180.139 306.733 180.084 307.388 179.889C307.806 179.766 308.158 179.476 308.559 179.317C309.004 179.141 309.485 178.995 309.947 178.875C310.41 178.755 310.619 178.622 310.912 178.251C311.088 178.028 311.159 177.762 311.237 177.494C311.373 177.023 311.557 176.567 311.702 176.099C312.162 174.611 312.286 173.127 312.415 171.58L312.42 171.516C312.501 170.551 312.375 169.542 312.375 168.61M317.933 173.642C318.266 173.475 318.612 173.446 318.973 173.362C319.45 173.252 319.909 173.12 320.39 173.031C320.696 172.975 321.024 172.959 321.333 172.927C321.787 172.88 322.324 172.898 322.76 172.764C323.174 172.637 323.628 172.544 324.018 172.355C324.402 172.168 324.92 172.186 325.279 171.932C325.586 171.716 325.741 171.593 325.919 171.272C326.095 170.956 326.212 170.607 326.358 170.278C326.514 169.926 326.823 169.565 327.06 169.26C327.207 169.072 327.352 168.871 327.522 168.701C327.717 168.507 327.96 168.188 328.201 168.054C328.827 167.707 329.18 168.265 329.167 168.857C329.157 169.277 328.975 169.762 328.79 170.132C328.659 170.392 328.485 170.732 328.406 171.009C328.258 171.526 328.036 171.884 328.302 172.446C328.447 172.752 328.721 173.129 328.978 173.349C329.13 173.48 329.282 173.681 329.401 173.844C329.493 173.97 329.692 174.048 329.752 174.169M317.992 173.701C317.878 173.942 317.759 174.263 318.05 174.416C318.607 174.709 319.297 174.637 319.909 174.637C320.542 174.637 321.164 174.578 321.795 174.578C322.363 174.578 322.924 174.637 323.491 174.637M318.284 174.52C318.036 174.539 317.871 174.893 317.77 175.105C317.526 175.621 318.788 175.86 319.038 175.878C320.014 175.951 320.95 175.865 321.912 175.865M318.752 176.041C318.752 176.29 318.688 176.614 318.934 176.772C319.409 177.077 320.06 176.902 320.579 176.99C321.145 177.086 321.737 177.036 322.311 177.036C322.545 177.036 322.781 177.094 323.023 177.094M320.858 177.211C320.858 177.492 321.048 177.631 321.336 177.679C321.965 177.784 322.599 177.887 323.238 177.91C323.444 177.917 323.722 177.954 323.914 177.855C324.003 177.809 324.089 177.743 324.193 177.738C324.713 177.71 325.257 177.445 325.802 177.445C326.021 177.445 326.233 177.328 326.475 177.328H326.768C327.036 177.328 327.244 177.61 327.47 177.738C327.699 177.867 327.888 177.978 328.084 178.144C328.195 178.237 328.342 178.258 328.419 178.381C328.474 178.47 328.838 178.709 328.933 178.732M329.693 174.11C330 174.11 330.121 174.129 330.311 174.373C330.469 174.577 330.5 174.811 330.577 175.056C330.679 175.375 330.881 175.646 330.919 175.982C331.02 176.893 331.492 178.031 330.688 178.791C330.413 179.05 329.969 179.155 329.609 179.204C329.519 179.215 329.159 179.224 329.108 179.288C329.053 179.357 328.813 179.389 328.725 179.373C328.057 179.251 327.538 178.705 327.762 178.03M330.103 174.11C330.842 174.198 331.591 174.295 332.333 174.341C332.722 174.365 333.119 174.344 333.509 174.344C333.843 174.344 334.119 174.418 334.436 174.458C334.7 174.491 334.973 174.442 335.238 174.461C335.496 174.48 335.778 174.891 335.973 175.04C336.102 175.138 336.311 175.242 336.363 175.397M328.289 179.493C330.545 181.505 333.402 183.936 336.597 182.418C337.432 182.022 338.22 181.546 338.993 181.043C339.404 180.776 339.552 180.002 339.584 179.551C339.622 179.018 339.64 178.495 339.64 177.959C339.64 176.276 339.19 174.575 338.707 172.972C338.415 172.006 338.062 171.061 337.767 170.096C337.461 169.091 337.2 168.077 336.844 167.089C336.483 166.086 336.597 164.975 336.597 163.926V162.668C336.597 162.432 336.614 161.965 336.48 161.765M325.598 156.909C325.947 157.258 326.608 157.384 327.073 157.539C327.73 157.758 328.393 158.005 329.03 158.28C330.544 158.934 332.102 159.514 333.587 160.231C333.976 160.418 334.334 160.662 334.738 160.829C334.893 160.893 335.036 160.977 335.193 161.033C335.287 161.067 335.398 161.037 335.485 161.076C335.668 161.157 336.527 161.788 336.48 161.882M315.534 158.839C315.995 158.379 316.546 158.129 317.114 157.845M310.795 160.946C310.361 161.123 309.921 161.324 309.54 161.602C309.266 161.802 308.938 161.898 308.666 162.087C308.318 162.327 308.296 162.544 308.133 162.902C307.979 163.242 308.056 163.656 308.045 164.021C308.035 164.348 307.987 164.697 307.987 165.041M317.172 158.722C317.367 159.728 317.671 160.705 317.933 161.693C318.152 162.521 318.239 163.366 318.505 164.183C318.987 165.662 319.208 167.278 319.968 168.656C320.25 169.167 320.438 169.867 320.553 170.444C320.622 170.787 320.77 171.128 320.8 171.477C320.837 171.904 320.853 172.523 321.092 172.881M326.241 157.26C326.208 158.261 325.819 159.264 325.669 160.257C325.546 161.071 325.26 161.885 325.247 162.714C325.223 164.133 325.196 165.536 324.983 166.943C324.882 167.612 324.801 168.304 324.655 168.961C324.551 169.428 324.485 170.007 324.281 170.457C324.228 170.573 324.193 170.822 324.193 170.951C324.193 171.093 324.076 171.174 324.076 171.334C324.076 171.573 323.959 171.806 323.959 172.062M318.518 162.818C318.881 162.209 319.38 161.716 319.747 161.134C319.866 160.945 320.076 160.693 320.273 160.595M321.853 160.595C322.113 160.885 322.38 161.195 322.708 161.414C322.93 161.562 323.197 161.654 323.404 161.823C323.665 162.038 324.107 162.323 324.427 162.438C324.745 162.551 324.963 162.791 325.305 162.876M319.162 162.057C319.419 162.473 319.743 162.972 320.153 163.254C320.49 163.485 320.681 163.643 320.364 164.017C320.007 164.44 319.79 165.035 319.617 165.555C319.53 165.814 319.427 166.223 319.279 166.445M320.39 163.696C320.693 163.793 321.255 164.064 321.47 163.67C321.632 163.37 321.832 163.126 321.97 162.811C322.091 162.534 322.207 162.286 322.35 162.028C322.433 161.88 322.606 161.897 322.672 161.765M321.443 164.222C321.899 164.835 322.255 165.515 322.705 166.124C323.109 166.671 323.223 167.619 323.433 168.259C323.575 168.693 323.739 169.128 323.839 169.576C323.913 169.906 324.076 170.26 324.076 170.6M309.566 179.493C309.653 180.573 309.625 181.657 309.625 182.74C309.625 183.095 309.332 184.119 309.332 183.764M311.556 178.791C312.641 179.444 313.766 179.936 314.949 180.383C315.377 180.545 315.791 180.774 316.223 180.917C316.681 181.067 317.189 181.064 317.653 181.19C317.959 181.272 318.275 181.345 318.577 181.437C318.798 181.504 318.96 181.677 319.207 181.729C319.542 181.799 319.884 182.067 320.215 182.067M321.736 178.498V180.019M322.789 178.498C322.654 179.375 321.889 180.103 321.795 180.956C321.774 181.143 321.585 181.256 321.564 181.427C321.54 181.614 321.561 181.817 321.561 182.005C321.561 182.328 321.599 182.701 321.707 183.003C321.798 183.259 321.736 183.61 321.736 183.881M321.97 181.95C321.948 181.978 321.804 182.223 321.801 182.22C321.736 182.155 321.85 181.923 321.882 181.862C321.96 181.715 322.003 181.547 322.074 181.398C322.371 180.772 322.878 180.329 323.244 179.74C323.435 179.433 323.918 178.968 323.959 178.615C323.969 178.536 324.149 178.053 324.193 178.03M329.108 158.488C329.175 159.05 329.332 159.56 329.488 160.097C329.561 160.346 329.752 160.625 329.752 160.887C329.752 161.02 329.804 161.18 329.635 161.18C329.355 161.18 329.008 161.296 328.742 161.384L328.731 161.388C328.485 161.47 327.881 161.619 327.775 161.895C327.604 162.342 327.562 162.796 327.441 163.257C327.355 163.584 327.411 163.973 327.411 164.31C327.411 165.144 327.023 165.905 326.852 166.712C326.602 167.899 326.366 169.063 325.832 170.132M315.476 163.228C315.946 164.475 316.374 165.77 316.945 166.975C317.355 167.841 317.749 168.705 318.05 169.618C318.282 170.32 318.628 170.996 318.807 171.714C318.862 171.932 318.961 172.202 318.986 172.413C319.003 172.556 319.103 172.67 319.103 172.823M319.981 177.621C320.037 177.911 320.047 178.251 320.228 178.498C320.404 178.739 320.647 179.014 320.748 179.291C320.871 179.63 321.134 179.965 321.326 180.253M307.928 163.169C307.748 163.586 307.47 164.032 307.401 164.492C307.365 164.74 307.304 164.981 307.164 165.191C306.862 165.644 306.679 166.16 306.381 166.608C306.048 167.108 305.997 167.554 305.997 168.142M306.356 183.729C305.394 182.962 304.336 182.199 303.592 181.206C303.065 180.504 302.596 179.776 302.151 179.018C301.351 177.656 300.861 176.217 300.333 174.732C299.886 173.475 299.536 172.117 299.313 170.804C299.062 169.329 299.138 167.788 299.138 166.295V160.253C299.138 159.547 299.243 158.879 299.278 158.182C299.303 157.673 299.502 157.107 299.628 156.609C299.842 155.765 300.141 154.925 300.399 154.094C301.134 151.724 301.677 149.298 302.536 146.965C302.977 145.769 303.349 144.579 303.965 143.457C304.368 142.724 304.83 142.115 305.305 141.433C305.735 140.814 306.328 140.301 306.944 139.875C307.74 139.325 308.544 138.745 309.447 138.384C310.73 137.871 311.874 137.078 313.251 136.776C315.253 136.338 317.283 136.356 319.32 136.356C322.346 136.356 325.294 136.5 328.271 137.049C329.361 137.25 330.513 137.698 331.514 138.194C332.283 138.574 332.871 139.036 333.492 139.611C334.125 140.197 334.816 140.783 335.384 141.433C335.929 142.055 336.332 142.798 336.871 143.43C337.433 144.089 337.922 144.841 338.405 145.56C339.362 146.982 340.229 148.436 341.06 149.936C342.423 152.394 343.357 154.935 343.357 157.777V162.589C343.357 163.905 343.147 165.218 343.147 166.529V170.259C343.147 172.118 342.959 173.901 342.602 175.725C342.418 176.663 342.166 177.58 341.96 178.508C341.715 179.609 340.954 180.675 340.13 181.417C339.709 181.795 339.216 182.226 338.748 182.538C338.263 182.861 337.912 183.395 337.331 183.589M317.586 150.662C317.792 150.372 318.287 150.213 318.614 150.12C318.933 150.029 319.411 149.791 319.723 150.024M322.879 150.12C323.372 149.997 323.833 149.831 324.332 149.737L324.334 149.737C324.499 149.706 324.748 149.66 324.913 149.713C325.123 149.78 325.29 149.98 325.43 150.12M175.732 66.0598C176.845 65.8319 177.695 65.417 178.598 66.1755C178.877 66.4098 178.915 67.2101 178.971 67.5445C179.067 68.1224 179.202 68.5795 179.202 69.1898C179.202 70.7103 178.894 71.9577 177.923 73.1231C177.412 73.7366 176.566 74.5457 176.31 75.3147M181.632 79.248C181.851 81.6634 182.737 83.7989 183.688 85.9835C184.424 87.6734 185.095 89.5216 186.015 91.1057C186.469 91.8873 186.701 92.8483 187.21 93.593C187.751 94.3829 188.238 95.1979 188.849 95.9453C189.392 96.6087 189.981 97.3669 190.655 97.899C191.237 98.3582 191.994 98.7498 192.506 99.2616M184.987 87.4616C185.675 87.4616 186.334 87.6373 186.947 87.9822C187.295 88.1783 187.677 88.1944 188.052 88.2779C188.567 88.3923 188.979 88.8536 189.434 89.0812C190.931 89.8297 192.119 90.9221 193.085 92.2947C193.881 93.4271 194.785 94.438 195.34 95.7331C195.706 96.5865 195.949 97.5063 196.259 98.3811C196.438 98.8834 196.579 99.3701 196.696 99.8914C196.861 100.622 197.217 101.332 197.339 102.064C197.579 103.506 197.842 105.042 198.233 106.447C198.517 107.469 198.557 108.679 199.216 109.558M157.569 113.838C158.513 114.526 159.673 115.007 160.699 115.573C161.639 116.092 162.497 116.707 163.418 117.251C164.943 118.15 166.61 118.84 168.096 119.796C169.395 120.631 170.915 121.263 172.261 121.936M174.112 121.357C174.655 120.512 175.57 120.044 176.317 119.391C176.866 118.91 177.405 118.484 178.02 118.093C178.565 117.746 179.18 117.054 179.601 116.557C180.261 115.776 181.141 115.166 181.921 114.487C182.374 114.092 182.906 113.827 183.341 113.401C183.75 113.001 184.083 112.53 184.588 112.244C184.986 112.019 185.293 111.702 185.591 111.357C186.01 110.873 186.553 110.559 186.979 110.085C188.146 108.784 189.319 107.539 190.546 106.312C191.65 105.208 192.546 104.442 192.911 102.835C193.094 102.03 193.034 101.177 193.174 100.367C193.338 99.4208 193.432 98.5379 193.432 97.5777C193.432 96.5726 193.486 95.5545 193.309 94.5827C193.179 93.8635 193.085 93.1876 193.085 92.4361M157.106 114.532C157.867 116.844 158.791 119.092 159.741 121.332C160.395 122.872 161.227 124.43 161.592 126.075C161.79 126.963 162.116 127.995 162.428 128.851C162.86 130.041 162.902 131.392 163.238 132.618C163.553 133.766 164.01 134.913 164.536 135.985C165.213 137.366 166.186 138.796 166.618 140.266C166.764 140.762 167.155 141.477 167.454 141.885C167.703 142.225 167.824 142.741 167.981 143.132C168.249 143.802 168.535 145.049 169.022 145.536M164.51 133.504C165.097 130.923 165.725 128.292 166.85 125.882C167.214 125.102 167.553 123.866 168.328 123.35C168.798 123.037 169.231 122.768 169.806 122.656C170.784 122.464 171.921 122.858 172.84 122.399M173.534 121.589C175.377 122.272 177.257 122.845 179.132 123.433C179.801 123.644 180.488 123.964 181.053 124.391C182.285 125.323 183.412 126.354 184.537 127.392C185.107 127.919 185.982 128.463 186.439 129.051C186.767 129.472 187.05 130.14 187.532 130.381M175.153 147.271C175.981 145.798 177.245 144.951 178.335 143.685C179.163 142.722 179.987 141.739 180.828 140.793C181.309 140.251 181.627 139.566 182.017 138.955C182.441 138.29 182.979 137.675 183.341 136.975C183.809 136.072 184.313 135.191 184.871 134.34C185.239 133.778 185.648 133.216 185.97 132.637C186.367 131.923 186.959 131.344 187.365 130.606C187.641 130.102 187.98 129.645 188.29 129.166C188.583 128.713 188.702 128.212 188.926 127.727C189.404 126.691 189.972 125.718 190.482 124.7C191.09 123.482 191.679 122.33 192.468 121.229C193.608 119.637 194.782 118.074 195.977 116.524C196.657 115.642 196.959 114.492 197.603 113.607C198.3 112.647 198.534 111.535 198.991 110.47C199.255 109.854 199.457 109.209 199.653 108.568C199.865 107.876 200.228 107.262 200.463 106.575C200.985 105.048 201.752 103.616 202.339 102.115C202.835 100.849 203.149 99.4623 203.149 98.1047M192.853 91.1636C193.218 92.9886 195.472 93.4761 196.902 94.1714C198.043 94.726 199.169 95.306 200.315 95.8488C200.83 96.0928 201.265 96.482 201.703 96.8322C201.914 97.0011 202.056 97.2866 202.281 97.462C202.445 97.5894 202.729 97.6113 202.802 97.7576M203.496 97.642C205.87 98.6089 208.565 98.764 211.029 99.4415C212.033 99.7178 213.024 100.064 214.024 100.361C216.002 100.948 218.084 101.248 220.103 101.665C223.492 102.365 226.894 102.953 230.258 103.76C231.746 104.118 233.274 104.265 234.744 104.699C235.894 105.038 237.019 105.472 238.176 105.785C239.856 106.24 241.445 106.922 243.086 107.501C244.088 107.855 245.037 108.397 246.03 108.786C246.954 109.149 247.929 109.489 248.774 110.02C250.375 111.026 252.005 111.983 253.588 113.028C255.328 114.177 256.677 115.687 258.254 117.051C258.936 117.641 259.508 118.332 260.169 118.941C261.194 119.884 262.261 120.814 263.235 121.807C264.249 122.841 265.299 123.942 265.966 125.239C266.769 126.801 267.692 128.318 268.582 129.828C269.48 131.351 270.123 133.35 270.478 135.079C271.124 138.23 271.794 141.381 272.22 144.572C272.312 145.267 272.493 145.922 272.728 146.551C272.863 146.916 273.139 147.336 273.139 147.734M116.385 140.33C118.819 138.436 121.187 136.817 123.917 135.452C125.078 134.872 126.135 134.162 127.362 133.71C128.948 133.127 130.539 132.571 132.15 132.065C133.225 131.727 134.036 130.834 135.068 130.387C135.774 130.082 136.404 129.674 137.093 129.34C137.563 129.112 138.005 128.999 138.417 128.646C138.996 128.149 139.73 127.497 140.448 127.257M117.542 144.957C119.139 142.733 120.914 141.316 123.365 140.118C125.282 139.181 127.204 138.256 129.11 137.296C130.953 136.369 132.723 135.29 134.541 134.321C136.604 133.221 138.292 131.666 139.959 130.06C140.465 129.572 141.233 129.581 141.662 129.057C142.174 128.431 141.994 127.008 141.142 126.795M140.91 126.795C141.348 125.87 142.24 125.251 142.967 124.571C143.638 123.943 144.537 123.98 145.351 123.665C146.784 123.11 148.633 122.63 150.184 122.63C151.1 122.63 152.284 122.054 152.942 122.746C153.529 123.364 154.214 124.468 154.214 125.342C154.214 125.748 154.279 126.23 154.188 126.628C154.052 127.225 153.392 127.645 152.993 128.061C152.301 128.783 151.119 129.216 150.229 129.661C149.343 130.105 148.429 130.353 147.466 130.554C146.096 130.841 144.994 130.754 143.674 130.201C142.739 129.809 141.914 129.321 141.026 128.877M210.553 127.142C209.704 125.955 209.236 125.096 207.892 124.712C207.026 124.465 206.201 124.481 205.296 124.481C203.675 124.481 202.062 124.365 200.437 124.365C199.149 124.365 198.035 124.662 196.966 125.342C196.214 125.821 196.022 127.477 196.504 128.234C197.837 130.329 199.978 131.523 202.339 132.206C203.741 132.612 205.247 132.463 206.697 132.463C207.29 132.463 207.868 132.432 208.419 132.232C208.644 132.15 209.297 131.935 209.396 131.711C209.438 131.618 210.05 131.1 209.73 130.972C209.56 130.904 209.353 131.022 209.19 130.908C208.944 130.734 208.814 130.337 208.644 130.092C208.161 129.394 208.605 128.242 209.37 127.977C209.71 127.86 209.954 127.805 210.328 127.842C211.106 127.92 212.126 128.289 212.867 128.536C215.337 129.36 217.911 129.826 220.361 130.677C221.759 131.162 223.269 131.296 224.667 131.795C225.392 132.054 225.823 132.385 226.466 132.81C228.003 133.825 229.426 134.94 230.798 136.159C231.926 137.161 233.156 137.941 234.403 138.781C235.616 139.598 237.092 140.323 238.157 141.32C239.167 142.264 240.376 143.021 241.428 143.929C242.226 144.617 243.068 145.564 243.986 146.088C244.656 146.471 245.117 147.378 245.837 147.618M208.818 130.612C210.545 130.774 212.308 130.866 214.024 131.139C214.566 131.226 215.054 131.275 215.527 131.512C216.906 132.201 218.461 132.595 219.872 133.228C221.01 133.738 222.099 134.254 223.266 134.713C224.878 135.347 227.045 135.897 228.362 137.104C229.689 138.32 231.197 139.302 232.52 140.542C233.46 141.422 234.48 142.241 235.503 143.016C236.992 144.145 238.501 145.579 240.226 146.346C240.559 146.493 241.297 146.867 241.441 147.155M137.324 109.558C137.995 112.321 138.205 115.171 138.655 117.97C138.926 119.658 139.436 121.294 139.664 122.99C139.822 124.173 140.424 124.874 140.795 125.985M143.571 130.844C144.285 132.734 145.126 134.417 146.02 136.204L146.065 136.294C146.355 136.875 146.592 137.492 146.836 138.093C147.249 139.11 147.375 140.224 147.762 141.255C147.974 141.821 148.118 142.266 148.224 142.849C148.353 143.558 148.691 144.22 148.867 144.906C148.941 145.196 148.989 145.989 149.24 146.114M106.205 135.587C106.547 133.975 107.077 132.297 107.246 130.651C107.292 130.206 107.372 129.813 107.535 129.398C107.793 128.739 108.084 128.08 108.313 127.412C108.869 125.784 109.802 124.139 110.871 122.797C112.079 121.28 112.995 119.553 114.701 118.53C116.958 117.176 119.535 116.486 122.002 115.625C124.031 114.916 125.919 113.846 127.838 112.887C128.417 112.597 128.954 112.269 129.509 111.936C129.993 111.645 130.517 111.534 131.013 111.293C133.076 110.289 135.513 110.463 137.555 109.442M131.077 112.218C130.601 113.961 130.142 115.709 129.715 117.463C129.279 119.253 128.595 120.971 128.185 122.765C127.795 124.47 127.259 126.109 127.259 127.887C127.259 129.241 127.491 130.535 127.491 131.885M124.946 139.404C124.578 141.12 123.555 142.465 122.979 144.096C122.843 144.483 122.264 145.836 121.938 145.998M214.949 100.881C216.595 101.67 218.187 102.65 219.904 103.272C221.074 103.696 222.046 104.209 223.092 104.859C224.025 105.439 224.966 106.028 225.888 106.614C226.418 106.951 227.131 107.047 226.955 107.822C226.829 108.375 226.364 108.864 226.061 109.326C225.655 109.946 225.297 110.595 224.872 111.203C223.756 112.8 222.588 114.467 221.35 115.972C220.863 116.564 220.364 117.164 219.821 117.707C219.282 118.246 218.67 118.673 218.24 119.314C217.608 120.254 216.935 121.236 216.357 122.212C216.05 122.73 216.034 123.37 215.701 123.896C215.534 124.16 215.267 124.526 215.18 124.828C215.009 125.428 214.577 126.168 214.255 126.705C214.086 126.986 213.942 127.747 213.677 127.836M210.206 132.463C209.028 134.771 207.346 136.8 205.874 138.922C204.787 140.49 204.01 142.07 203.136 143.755C202.459 145.063 201.872 146.589 201.414 147.965M167.402 129.803C168.073 130.636 168.707 131.561 169.305 132.45C170.022 133.517 170.93 134.524 171.567 135.638C171.776 136.005 173.674 135.622 174.035 135.593C174.58 135.55 175.095 135.471 175.642 135.471C176.307 135.471 176.824 135.292 177.004 134.636C177.41 133.156 177.471 131.593 177.988 130.124C178.433 128.856 178.547 127.495 178.971 126.223C179.205 125.519 179.318 124.761 179.318 124.018M166.245 128.761C166.422 129.104 166.603 129.392 166.824 129.687M171.104 136.165C170.486 137.85 169.671 139.41 168.906 141.024C168.672 141.519 168.444 142.208 168.444 142.759M176.773 135.355C178.013 136.254 179.482 137.196 180.218 138.595C180.398 138.938 180.475 139.347 180.822 139.52M183.945 85.3793C188.52 85.3793 193.117 85.3313 197.686 85.5207C205.939 85.8628 214.214 85.768 222.462 86.2469C226.725 86.4944 230.961 86.7675 235.233 86.7675H247.997C250.729 86.7675 253.602 86.5148 256.3 87.0053C256.555 87.0516 256.713 87.2247 256.994 87.2303C257.469 87.2396 257.946 87.2303 258.421 87.2303C258.68 87.2303 260.245 87.1891 260.291 87.4681C260.384 88.0262 259 88.9278 258.678 89.2226C256.815 90.9281 255.68 93.2566 254.423 95.4054C253.427 97.1086 252.525 98.748 251.872 100.624C251.525 101.62 251.196 102.629 250.824 103.619C250.548 104.356 250.157 105.087 250.002 105.862C249.858 106.579 249.691 107.21 249.655 107.938C249.635 108.336 249.59 108.992 249.423 109.326M260.298 88.6185H262.521C264.479 88.6185 266.261 88.9556 268.19 89.2226C269.491 89.4027 270.651 89.692 271.892 90.1224C272.265 90.2518 272.743 90.3318 273.139 90.3538C273.533 90.3757 273.928 90.8097 274.334 90.9065C275.1 91.0887 275.681 91.7244 276.288 92.2048C277.038 92.798 277.946 93.2745 278.769 93.7601C279.418 94.1429 279.894 94.6897 280.427 95.2126C280.859 95.6367 281.383 95.935 281.674 96.4851C282.031 97.1606 282.299 97.9092 282.509 98.6446C282.762 99.5278 282.881 100.402 283.023 101.305C283.24 102.67 283.643 103.997 283.756 105.38C283.906 107.211 283.917 109.057 283.898 110.894C283.869 113.589 283.122 116.234 282.689 118.877C282.29 121.315 281.783 123.659 281.558 126.126C281.167 130.43 281.366 134.673 281.79 138.955C281.979 140.874 282.14 142.794 282.561 144.687C282.716 145.387 282.856 145.984 282.856 146.693M277.651 93.8243C278.065 97.8272 278.817 101.826 279.065 105.843C279.235 108.609 279.154 111.395 279.154 114.166C279.154 118.807 278.628 123.493 277.818 128.061C277.568 129.467 277.188 130.913 277.188 132.354V137.515C277.188 138.939 277.155 140.367 277.252 141.789C277.337 143.036 277.535 144.266 277.535 145.516C277.535 146.242 277.589 146.909 277.766 147.618M236.467 105.74C234.777 107.872 232.732 110.04 231.852 112.681C231.297 114.346 230.772 116.064 230.361 117.771C230.024 119.167 229.988 120.677 229.988 122.109C229.988 123.314 229.757 124.503 229.757 125.715C229.757 126.666 229.755 127.654 229.615 128.594C229.487 129.463 229.178 130.35 229.178 131.229V133.62M229.757 139.52C230.028 141.472 230.208 143.441 230.727 145.343C230.809 145.644 230.737 145.964 230.824 146.256C230.94 146.647 231.077 146.978 231.145 147.387M133.507 111.293C133.507 117.158 133.622 123.012 133.622 128.877M132.812 137.206C132.496 139.897 131.887 142.696 131.887 145.42M131.887 145.42C131.887 145.632 131.886 145.807 131.829 146.011C131.645 146.673 131.863 145.589 131.887 145.42ZM137.903 119.044C137.401 121.276 137.324 123.689 137.324 125.985M140.216 134.083C140.216 137.035 140.472 140.174 139.933 143.1C139.824 143.696 139.756 144.306 139.664 144.906C139.624 145.165 139.731 145.521 139.406 145.304M227.096 113.144C227.054 114.916 226.98 116.692 226.98 118.465C226.98 118.707 227.016 118.926 227.07 119.159C227.178 119.627 227.349 120.085 227.443 120.554C227.57 121.189 227.906 121.749 227.906 122.399M223.047 116.73C222.796 119.99 222.7 123.173 222.7 126.428C222.7 127.141 222.816 127.839 222.816 128.53M224.088 139.057C224.19 141.446 224.435 143.845 224.435 146.23M217.378 123.208C217.747 124.028 217.58 125.214 217.61 126.101M217.494 135.471C217.779 138.579 217.962 141.736 218.51 144.816C218.556 145.075 218.652 145.766 218.42 145.883M210.553 135.24C210.792 138.886 210.9 142.465 210.9 146.114M313.578 18.591C313.84 17.042 314.2 15.5187 314.478 13.9752C314.566 13.4901 314.555 12.9837 314.758 12.5335C314.879 12.2645 314.897 11.7112 315.168 11.5305C315.312 11.4347 315.746 11.5072 315.914 11.5134C316.93 11.5511 317.159 12.7173 317.192 13.8048M317.192 13.8048C317.211 14.4154 317.168 15.0012 317.168 15.3485V17.6108C317.168 17.908 317.165 18.4259 317.088 17.7818C316.928 16.4429 316.952 15.1243 317.192 13.8048ZM317.192 13.8048C317.21 13.7097 317.228 13.6145 317.248 13.5193C317.37 12.9259 317.675 12.0659 318.251 11.7642C318.614 11.5737 318.887 11.3083 319.322 11.3083C319.939 11.3083 320.066 12.0734 320.245 12.562C320.836 14.1708 320.704 15.7345 321.066 17.3601C321.124 17.6209 321.168 17.8221 321.168 18.0895C321.168 18.4397 321.051 20.1028 321.271 19.0013M323.527 12.7443C323.705 15.0866 323.802 17.4271 323.932 19.7706C323.969 20.4258 324.004 19.3055 324.04 19.1038M323.938 12.2314C325.311 12.3341 326.671 12.3341 328.046 12.334L328.12 12.334C328.562 12.334 329.469 12.3056 329.762 12.7443C330.184 13.3776 329.532 14.2531 329.112 14.6932C329.003 14.8075 328.496 15.0295 328.559 15.2516C328.597 15.3844 328.917 15.4677 329.009 15.5765C329.189 15.7884 329.272 16.1265 329.272 16.397C329.272 17.046 329.41 17.7497 328.799 18.175C327.772 18.8888 326.119 19.4115 324.861 19.4115M336.144 12.6418C334.919 12.8919 333.778 13.4055 332.582 13.7644C332.195 13.8805 332.033 14.4021 331.813 14.6932C331.18 15.5299 331.189 16.4998 331.859 17.4171C332.473 18.2592 333.507 19.0384 334.583 19.0013C335.614 18.9657 336.103 17.8524 336.965 17.5653M317.195 21.5239C316.862 21.8875 316.553 22.2415 316.262 22.6358C316.204 22.7146 316.205 22.7993 316.152 22.8791M316.83 22.4621C317.13 22.7322 317.513 23.1233 317.924 23.1918M318.915 21.4196C319.014 21.9869 319.107 22.5561 319.213 23.1223C319.237 23.253 319.229 23.2204 319.28 23.296M319.488 22.6185C319.959 22.3571 320.622 22.2256 321.156 22.1494M318.393 24.8597C318.775 24.8065 319.149 24.7525 319.52 24.6483C319.72 24.5923 319.923 24.4948 320.134 24.4948C320.295 24.4948 320.222 25.0674 320.189 25.1724C320.08 25.5158 319.855 25.532 319.529 25.6444C319.187 25.762 318.858 25.8142 318.506 25.879C318.4 25.8987 318.207 25.9247 318.188 26.0585C318.143 26.3699 318.083 26.7364 318.144 27.0488C318.232 27.4965 318.786 27.4629 319.129 27.4658C319.7 27.4706 320.414 27.5305 320.843 27.101M323.397 23.4524C322.675 23.678 322.137 24.4473 322.262 25.1956C322.349 25.7173 322.945 25.7501 323.357 25.7458C323.829 25.7409 324.256 25.534 324.677 25.3288C324.882 25.2288 324.873 24.9379 324.897 24.7439C324.961 24.228 324.643 23.6322 324.179 23.4003M326.212 22.5142C326.313 23.8919 326.681 28.0133 326.681 26.6319M326.837 25.0682C327.36 25.0619 328.005 24.9804 328.297 24.4948M329.443 22.2536C328.853 22.4807 329.016 23.4262 329.235 23.8636C329.499 24.3925 330.049 24.506 330.561 24.2545C331.185 23.9478 331.404 23.7122 331.268 23.0065C331.202 22.6691 331.132 22.0972 330.694 22.0972M332.936 21.159C332.956 22.0622 332.988 22.9659 332.988 23.8694M332.049 25.2246C331.733 25.5119 331.38 25.7697 331.094 26.0875C331.022 26.1667 331.002 26.2338 330.903 26.267M331.216 25.85C331.581 25.8693 331.943 25.9543 332.31 25.9543M333.926 25.5894C333.528 26.0544 333.094 26.5072 332.727 26.9967M333.144 26.4234C333.601 26.5815 334.171 27.1297 334.656 27.0488M336.167 20.5857C335.896 20.7148 335.453 20.8423 335.31 21.1388C335.236 21.2915 335.184 21.4578 335.125 21.6166C335.058 21.7952 335.022 22.0864 335.136 22.2536C335.448 22.7097 335.981 23.0893 336.535 22.7198C336.679 22.6239 336.912 22.5794 337.03 22.4505C337.192 22.2734 337.177 22.0476 337.236 21.8366C337.331 21.4922 337.092 20.703 336.74 20.5857M334.291 24.7033C335.104 24.6664 335.916 24.5574 336.729 24.547C336.881 24.545 337.032 24.5162 337.181 24.4833C337.423 24.4293 337.64 24.3906 337.887 24.3906M335.959 25.7979C336.029 26.5144 336.16 27.2304 336.306 27.9349C336.371 28.2498 336.376 28.2207 336.48 27.987M336.584 25.6415H337.771C338.064 25.6415 338.302 25.5126 338.585 25.4881C338.664 25.4812 338.867 25.3911 338.93 25.4562C339.163 25.7006 339.269 26.2362 339.347 26.5537C339.43 26.8927 339.708 27.3359 339.387 27.5701C338.912 27.9167 338.181 28.1031 337.612 28.2129C337.282 28.2766 336.908 28.2765 336.584 28.1955M3.20043 1.78992C10.9826 1.78992 18.716 1.52661 26.4884 1.52661C30.4092 1.52661 34.32 2.01845 38.2494 2.05323C43.3711 2.09855 48.6205 2.12177 53.726 2.52133C62.18 3.18295 70.4983 3.89637 78.9888 3.89637C88.8148 3.89637 98.6579 4.15968 108.494 4.15968C114.932 4.15968 121.403 3.96252 127.817 4.56926C133.486 5.10543 139.171 4.94959 144.859 4.94959C150.618 4.94959 156.522 5.06546 162.267 4.62778C165.551 4.37757 168.81 3.89637 172.111 3.89637C176.567 3.89637 181.154 3.8433 185.599 3.50141C201.475 2.28014 217.36 1.52661 233.301 1.52661H264.766C273.338 1.52661 281.882 2.31653 290.468 2.31653C305.093 2.31653 319.685 1.78992 334.294 1.78992H342.997C344.792 1.78992 346.35 1.47267 348.102 1.27793L348.325 1.25313C349.489 1.1233 350.594 1 351.818 1M2.67382 2.31653C2.67382 5.12907 2.70278 7.70469 3.34671 10.4644C4.09058 13.6524 4.64587 16.8628 5.02894 20.119C5.35324 22.8755 5.04357 25.8648 5.04357 28.6325C5.04357 32.3033 4.54232 36.1442 3.84407 39.7353C0.496743 56.9501 1.35728 74.8089 1.35728 92.2795C1.35728 97.1235 1.03249 102.095 1.75224 106.893C2.58298 112.431 2.20071 117.966 2.67382 123.525C3.22967 130.057 3.46373 136.749 3.46373 143.302C3.46373 152.844 3.94438 162.298 3.14192 171.827C2.82332 175.611 3.59467 186.891 2.67382 183.208M352.608 1.52661C351.402 6.35027 349.975 11.6502 349.975 16.6814C349.975 19.7722 350.187 22.8702 350.238 25.9263C350.345 32.3583 351.743 38.4918 352.549 44.8551C353.235 50.2621 353.135 55.8237 353.135 61.2679C353.135 66.5827 352.629 72.1866 353.193 77.4759C354.125 86.2102 354.165 95.5694 352.476 104.201C351.467 109.359 350.35 114.389 349.77 119.605C349.41 122.842 349.448 126.088 349.448 129.347C349.448 137.764 349.712 146.194 349.712 154.595C349.712 161.525 351.86 168.149 352.579 174.972C352.828 177.345 353.661 179.779 353.661 182.155C353.661 183.017 354.04 185.783 353.398 186.104M2.1472 183.735C5.3114 183.735 8.49238 183.562 11.6262 184.056C13.0112 184.275 14.523 184.702 15.8976 184.788C16.9526 184.854 17.9408 185.277 18.9988 185.314C19.6917 185.339 20.4218 185.229 21.1053 185.373C23.7635 185.933 26.8602 185.806 29.5896 185.841C33.1135 185.887 36.638 186.104 40.1803 186.104C46.4008 186.104 52.4691 185.051 58.6996 185.051C63.6648 185.051 68.5982 184.525 73.5617 184.525C78.4674 184.525 83.3445 184.788 88.2484 184.788C92.2684 184.788 96.2031 185.364 100.2 185.592C104.047 185.812 107.842 186.104 111.712 186.104H167.972C172.613 186.104 177.271 185.841 181.927 185.841C186.955 185.841 191.987 185.051 197.023 185.051C205.723 185.051 214.43 185.314 223.12 185.314C227.754 185.314 232.365 185.841 237.016 185.841C241.239 185.841 245.59 186.54 249.787 185.973C252.461 185.611 255.258 185.841 257.949 185.841C260.426 185.841 262.54 185.547 264.943 185.213L265.161 185.183C267.634 184.839 270.162 184.613 272.607 184.115C275.259 183.575 277.962 183.648 280.594 183.076C283.086 182.535 286.486 182.736 289.049 182.959C292.181 183.232 295.212 183.735 298.367 183.735C302.417 183.735 306.832 183.201 310.801 183.939C312.101 184.181 313.519 183.961 314.838 183.998C316.161 184.035 317.47 184.261 318.817 184.261C321.937 184.261 325.013 184.525 328.12 184.525H343.524C345.982 184.525 348.429 184.788 350.896 184.788C351.912 184.788 352.936 185.314 353.924 185.314M3.20043 126.597C18.1456 126.884 33.1023 127.124 48.0503 127.124H62.7954C65.8925 127.124 69.0591 126.947 72.1282 127.446C78.0441 128.406 84.3934 128.857 90.428 128.426C94.2371 128.154 98.0345 127.853 101.838 127.636C103.262 127.554 104.591 127.124 106.022 127.124C106.713 127.124 107.415 127.248 107.996 126.86M282.568 125.281C285.627 125.233 288.664 124.821 291.682 124.344C295.661 123.716 299.514 123.566 303.516 123.306C307.198 123.067 311.503 122.712 315.16 123.496C320.087 124.552 325.331 125.281 330.373 125.281H342.763C344.04 125.281 345.265 125.017 346.552 125.017C347.381 125.017 348.482 125.223 349.185 124.754" stroke="black" stroke-width="1.5" stroke-linecap="round"/>
</svg>
