<svg width="237" height="73" viewBox="0 0 237 73" fill="none" xmlns="http://www.w3.org/2000/svg">
<path d="M2.98046 8.87689C6.02167 12.256 7.27377 19.0682 8.12787 23.3387C9.59597 30.6792 9.98528 39.0799 9.2445 46.5701C8.64566 52.625 5.85133 58.8042 4.20603 64.6541C3.5378 67.03 3.17264 71.4145 2 66.724" stroke="black" stroke-width="3" stroke-linecap="round"/>
<path d="M5.85767 9.20242C7.99818 5.50517 18.2866 0.0296811 22.8193 2.71569C28.0777 5.83182 34.0419 9.74732 35.2401 16.3378C35.7937 19.3822 36.9155 23.1799 35.8888 26.2601C35.0187 28.8704 31.4825 32.0416 29.1859 33.4195C26.4356 35.0697 23.7953 36.7262 20.8252 37.9362C17.922 39.119 14.661 41.2036 11.4795 41.2036" stroke="black" stroke-width="3" stroke-linecap="round"/>
<path d="M31.3721 41.2036C34.4788 41.2036 35.6116 46.7961 36.129 48.9877C36.8636 52.0989 37.0825 55.3132 36.9939 58.5016C36.9002 61.8768 34.1843 64.9604 33.198 67.9193C32.9296 68.7244 32.4264 70.3048 32.1409 68.592C31.7361 66.1629 31.3721 63.8997 31.3721 61.4326C31.3721 57.8559 31.1234 53.7829 31.9007 50.285C33.0772 44.9905 41.1344 41.6361 46.0754 41.6361" stroke="black" stroke-width="3" stroke-linecap="round"/>
<path d="M45.2104 57.6366C49.5956 57.6366 61.6905 57.7438 58.8085 50.333C57.9523 48.1312 55.4577 48.3611 53.5231 48.6513C50.0136 49.1777 48.4847 52.3215 46.6039 54.9458C44.7945 57.4706 44.0117 58.7403 44.3696 61.9611C44.6725 64.6872 46.947 65.6396 49.1025 66.4778C53.7605 68.2892 57.6762 66.5037 61.6435 64.1234" stroke="black" stroke-width="3" stroke-linecap="round"/>
<path d="M85.4281 45.5281C82.7498 45.5281 79.9133 45.2573 77.2597 45.5521C74.9635 45.8073 73.6734 48.6339 72.2385 50.0688C71.3662 50.9411 70.8927 54.5324 72.4547 54.9459C74.6525 55.5276 77.5484 55.2486 79.8063 55.4744C81.6972 55.6635 83.5619 58.7653 84.5392 60.2313C85.7872 62.1033 85.1825 65.5548 83.8665 67.1746C80.6356 71.1511 73.6779 69.634 71.1573 65.8532" stroke="black" stroke-width="3" stroke-linecap="round"/>
<path d="M94.0771 18.7163C94.1754 20.5834 95.0312 22.2205 96.6718 23.0408" stroke="black" stroke-width="3" stroke-linecap="round"/>
<path d="M97.9691 33.8519C97.8467 35.1989 97.2477 36.4531 97.1042 37.816C96.6438 42.1902 96.6718 46.5383 96.6718 50.9336C96.6718 54.7816 96.0739 59.1531 96.7679 62.9701C97.2823 65.7995 97.9306 68.7646 98.834 71.4749" stroke="black" stroke-width="3" stroke-linecap="round"/>
<path d="M148.133 60.6638C150.743 61.892 156.551 63.0605 159.137 61.3365C161.968 59.4491 166.445 53.1248 163.149 49.8286C160.613 47.2923 154.44 44.3852 151.064 46.7293C148.494 48.5145 146.022 50.6147 144.073 53.0719C142.727 54.7695 142.944 56.644 142.944 58.6938C142.944 62.4885 143.263 64.5713 145.971 67.1505C147.598 68.6997 149.16 69.7452 151.401 69.7452C153.501 69.7452 155.48 70.3507 157.647 70.1536C160.514 69.8931 162.955 67.5824 164.999 65.8532" stroke="black" stroke-width="3" stroke-linecap="round"/>
<path d="M172.783 47.2579C172.783 52.0648 172.961 56.2781 174.416 60.904C175.121 63.1425 176.242 70.0497 176.242 67.7031C176.242 65.3321 175.334 62.8957 174.969 60.5677C174.324 56.453 173.648 52.157 173.648 47.9786C173.648 45.63 174.685 42.6274 176.843 41.2997C178.653 40.1859 181.112 42.4831 182.321 43.3898C185.405 45.7034 189.9 48.5749 191.378 52.3511C192.993 56.4789 193.108 61.44 193.108 65.8531" stroke="black" stroke-width="3" stroke-linecap="round"/>
<path d="M210.406 15.2567C207.862 29.3204 208.193 43.5027 210.166 57.5886C210.438 59.533 209.905 67.7127 213.721 64.7C220.11 59.6564 226.696 57.4923 234.623 55.9069" stroke="black" stroke-width="3" stroke-linecap="round"/>
<path d="M200.892 36.8791C203.717 34.9236 208.949 33.7822 212.304 33.4195C214.293 33.2044 216.564 33.2331 218.43 32.5546C221.108 31.5808 224.121 31.7306 226.839 30.8248" stroke="black" stroke-width="3" stroke-linecap="round"/>
<path d="M122.61 44.92C121.009 44.92 119.588 44.7787 118.188 45.7124C116.981 46.5169 115.704 47.1341 114.572 48.0605C113.74 48.741 113.03 49.6441 112.123 50.2213C110.882 51.0113 109.342 52.825 108.55 54.0532C106.856 56.6816 105.088 58.8329 104.517 61.9763C103.716 66.379 106.588 70.0723 111.057 70.0723C115.715 70.0723 119.051 66.3243 122.149 63.1576C125.061 60.1807 127.124 56.9002 128.574 52.944C129.815 49.5587 130.529 45.9999 131.671 42.5719C132.819 39.1286 133.474 35.619 134.408 32.1279C135.173 29.2707 136.612 26.0697 136.612 23.0811C136.612 21.5091 136.523 23.1658 136.411 23.859C136.078 25.9249 135.277 27.9296 134.797 29.967C134.286 32.14 133.943 34.3388 133.645 36.5504C133.329 38.8986 132.585 41.3193 132.478 43.6668C132.301 47.5533 131.77 51.5346 131.959 55.4217C132.132 58.9683 133.297 62.253 133.818 65.7218C133.97 66.7331 134.17 67.8137 135.057 68.2572" stroke="black" stroke-width="3" stroke-linecap="round"/>
</svg>
